<?xml version="1.0" standalone="no"?>
<!DOCTYPE svg PUBLIC "-//W3C//DTD SVG 20010904//EN"
 "http://www.w3.org/TR/2001/REC-SVG-20010904/DTD/svg10.dtd">
<svg version="1.0" xmlns="http://www.w3.org/2000/svg"
 width="1536.000000pt" height="1536.000000pt" viewBox="0 0 1536.000000 1536.000000"
 preserveAspectRatio="xMidYMid meet">
<metadata>
Created by potrace 1.14, written by Peter Selinger 2001-2017
</metadata>
<g transform="translate(0.000000,1536.000000) scale(0.100000,-0.100000)"
fill="#000000" stroke="none">
<path d="M9211 14243 c-12 -14 -32 -63 -45 -107 -85 -286 -74 -259 -106 -253
-16 4 -52 18 -82 32 -167 81 -473 171 -718 210 -52 8 -126 21 -165 30 -332 71
-996 109 -1405 81 -124 -8 -279 -22 -345 -30 -66 -8 -179 -22 -251 -30 -71 -9
-145 -21 -164 -26 -19 -5 -82 -17 -140 -25 -58 -9 -127 -20 -155 -25 -27 -6
-81 -12 -120 -16 -38 -3 -100 -12 -137 -21 -55 -13 -105 -14 -265 -10 -452 14
-759 1 -944 -39 -187 -40 -434 -118 -519 -163 -19 -10 -71 -38 -115 -61 -71
-38 -115 -69 -268 -188 -90 -71 -246 -210 -324 -289 -101 -102 -157 -171 -190
-237 -14 -28 -34 -62 -44 -75 -11 -13 -19 -34 -19 -46 0 -12 -11 -48 -24 -81
-23 -57 -38 -118 -71 -295 -29 -152 -9 -483 42 -699 26 -107 97 -319 134 -400
12 -25 30 -67 40 -95 10 -27 31 -82 47 -121 17 -39 47 -120 67 -180 21 -60 57
-148 81 -195 24 -47 44 -92 44 -100 0 -26 53 -98 79 -108 31 -13 167 -1 163
14 -4 12 41 25 49 13 8 -11 279 68 311 92 15 11 36 20 48 20 11 0 19 3 19 8
-4 22 4 31 28 34 25 3 29 9 38 57 6 31 16 56 24 59 8 3 58 34 110 70 135 92
140 96 141 107 0 17 43 44 150 96 66 32 110 62 110 76 0 16 98 69 143 77 25 5
54 22 83 48 24 23 47 38 51 35 3 -4 11 0 17 7 6 8 59 39 118 69 59 31 127 68
152 82 24 14 57 27 72 29 16 2 45 11 64 19 76 32 212 79 265 90 30 6 55 15 55
19 0 4 22 8 49 8 33 0 56 6 74 20 14 12 40 20 61 20 20 0 60 11 89 25 30 15
61 24 74 20 12 -3 25 -1 28 5 3 5 16 10 27 10 11 0 39 9 62 19 94 44 116 51
158 51 32 0 46 5 56 20 12 19 42 28 42 12 0 -10 77 -6 126 7 23 6 49 8 58 5 9
-3 22 -2 29 4 26 21 358 1 409 -24 15 -8 39 -14 53 -14 15 0 42 -15 68 -38 23
-21 62 -44 87 -51 27 -8 57 -27 77 -47 25 -28 36 -34 57 -28 16 4 26 2 26 -5
0 -6 13 -11 29 -11 17 0 31 -6 35 -16 3 -9 13 -14 21 -10 9 3 19 -3 25 -14 13
-24 27 -26 32 -5 2 11 11 8 35 -15 18 -17 37 -30 44 -30 6 0 17 -7 23 -16 15
-19 43 -9 52 19 6 18 7 18 16 4 6 -11 5 -24 -3 -38 -14 -27 6 -54 21 -29 7 10
10 11 10 3 0 -19 27 -16 39 5 9 15 10 15 11 -5 0 -16 6 -23 19 -23 11 0 23 -5
26 -10 4 -6 10 -8 15 -5 5 3 13 -2 18 -11 6 -11 17 -15 31 -11 12 3 27 0 34
-6 6 -7 39 -13 72 -14 132 -5 153 -3 160 15 5 13 9 12 28 -6 15 -14 32 -19 52
-17 132 16 147 16 162 3 9 -7 21 -13 27 -13 26 -2 93 -19 111 -28 11 -6 32
-10 48 -8 15 1 56 -6 90 -17 142 -44 175 -53 237 -61 89 -13 163 -33 240 -66
40 -17 104 -33 165 -41 55 -8 120 -19 145 -25 25 -6 77 -15 115 -21 39 -5 78
-14 87 -19 10 -5 29 -9 42 -9 14 0 28 -4 31 -10 3 -5 18 -10 32 -10 15 0 34
-7 43 -15 10 -9 32 -17 49 -20 73 -9 93 -17 88 -34 -3 -14 2 -16 32 -13 20 3
39 10 43 16 5 6 8 1 8 -13 0 -23 1 -23 18 -8 27 24 42 21 42 -9 0 -16 4 -23
11 -18 6 3 14 3 18 -2 15 -22 60 -42 80 -37 17 4 20 2 15 -11 -4 -10 -1 -16 7
-17 8 0 57 -2 109 -4 147 -4 320 -24 351 -41 15 -7 35 -14 43 -14 9 0 23 -11
32 -25 9 -14 25 -25 35 -25 11 0 18 -5 16 -12 -1 -7 8 -17 21 -23 27 -12 24
-28 -7 -35 -20 -5 -16 -9 30 -30 35 -16 48 -26 37 -28 -25 -5 -22 -17 7 -30
16 -8 25 -20 25 -35 0 -13 8 -32 19 -41 10 -9 28 -44 40 -76 14 -37 29 -61 41
-65 21 -7 63 -59 54 -68 -3 -3 7 -13 21 -24 15 -10 44 -33 65 -50 20 -18 42
-33 48 -33 5 0 12 -7 16 -15 3 -8 13 -15 22 -15 9 0 33 -19 53 -42 20 -23 71
-79 114 -123 89 -91 119 -145 112 -200 -2 -20 0 -44 5 -53 43 -83 60 -127 60
-156 0 -21 6 -36 15 -40 8 -3 15 -12 15 -19 0 -8 7 -20 15 -27 8 -7 15 -21 15
-31 0 -11 11 -36 25 -57 14 -21 32 -61 40 -90 9 -28 25 -60 36 -70 11 -11 17
-26 14 -34 -3 -8 4 -37 15 -63 16 -37 23 -46 30 -35 5 8 10 12 12 10 2 -3 12
-22 22 -42 10 -21 26 -40 36 -43 24 -8 54 -74 40 -90 -9 -11 -7 -12 9 -8 18 4
21 1 21 -23 0 -19 3 -25 10 -18 7 7 6 22 -5 47 -27 64 -17 74 20 20 19 -29 35
-55 35 -58 0 -10 44 -65 52 -65 12 0 10 38 -2 45 -5 3 -10 13 -10 22 0 12 7 9
25 -11 14 -15 25 -33 25 -41 0 -7 3 -15 8 -17 4 -1 18 -24 32 -50 26 -50 40
-60 41 -30 0 9 5 1 12 -18 7 -19 19 -35 27 -35 10 0 16 12 18 35 1 19 6 42 9
50 3 8 5 23 4 33 -3 26 19 52 31 35 5 -8 6 9 3 40 -2 29 -8 58 -12 65 -4 7 -8
14 -8 17 0 3 -13 31 -28 63 -16 33 -26 61 -24 64 3 2 10 -5 17 -16 6 -12 15
-21 21 -21 5 0 3 14 -6 30 -19 36 -4 40 23 5 25 -31 36 -32 29 -2 -3 12 -2 31
2 41 7 17 12 13 42 -33 28 -43 35 -48 37 -30 2 12 -1 26 -7 32 -15 15 -14 27
3 27 8 0 18 -9 21 -20 3 -11 15 -20 25 -20 11 0 24 -9 30 -20 6 -11 16 -20 22
-20 9 0 9 3 0 12 -7 7 -12 21 -12 32 0 17 14 15 15 -2 1 -4 13 -32 27 -62 15
-30 30 -67 33 -83 4 -15 11 -29 15 -32 5 -3 6 -14 3 -24 -8 -30 13 -59 40 -56
30 4 52 -13 60 -45 3 -14 10 -40 14 -58 4 -18 13 -32 18 -30 10 3 11 21 3 62
-6 38 21 27 32 -13 6 -25 18 -42 30 -46 11 -4 20 -9 21 -13 0 -4 3 -16 5 -27
3 -11 9 -42 13 -70 5 -27 17 -70 25 -94 9 -24 19 -60 22 -80 2 -20 10 -70 17
-111 21 -116 29 -135 83 -173 67 -47 128 -58 371 -64 249 -7 308 1 528 64 163
47 232 86 360 202 35 32 127 204 152 286 94 302 99 396 52 1000 -6 77 -12 149
-13 160 -13 104 -20 148 -42 265 -39 209 -126 517 -171 603 -8 16 -30 70 -48
121 -28 77 -76 182 -173 375 -42 83 -234 260 -417 383 -168 114 -195 137 -215
180 -9 21 -20 35 -23 32 -9 -9 -26 38 -32 89 -7 58 -22 97 -83 217 -91 182
-147 268 -262 400 -198 230 -557 467 -855 565 -59 19 -113 35 -120 35 -7 0
-39 9 -72 19 -105 34 -230 50 -628 81 -280 23 -355 31 -500 55 -82 14 -166 29
-185 34 -84 21 -192 52 -275 79 -50 17 -117 38 -150 47 -77 23 -305 112 -370
145 -48 24 -50 27 -53 70 -2 25 4 113 14 197 20 181 16 201 -52 232 -61 29
-98 27 -123 -6z m-3771 -217 c0 -3 -4 -8 -10 -11 -5 -3 -10 -1 -10 4 0 6 5 11
10 11 6 0 10 -2 10 -4z m-1736 -3075 c3 -5 -3 -11 -14 -14 -22 -6 -37 8 -18
16 20 8 26 8 32 -2z m7736 -1274 c0 -18 -2 -19 -10 -7 -13 20 -13 43 0 35 6
-3 10 -16 10 -28z m690 -190 c0 -5 -4 -6 -9 -3 -4 3 -5 -13 0 -37 11 -57 11
-57 -6 -57 -9 0 -12 -6 -9 -15 4 -8 1 -15 -5 -15 -6 0 -11 15 -11 33 0 19 -7
56 -15 82 -11 37 -11 52 -3 63 9 11 16 8 34 -15 13 -15 23 -32 24 -36z m-600
-72 c0 -5 -9 4 -20 20 -11 17 -20 35 -20 40 0 6 9 -3 20 -20 11 -16 20 -34 20
-40z m318 6 c12 -10 22 -23 22 -30 0 -20 -15 -12 -33 19 -21 35 -18 37 11 11z
m-378 -12 c0 -6 -4 -7 -10 -4 -5 3 -10 11 -10 16 0 6 5 7 10 4 6 -3 10 -11 10
-16z m50 -20 c0 -6 -4 -7 -10 -4 -5 3 -10 11 -10 16 0 6 5 7 10 4 6 -3 10 -11
10 -16z m241 -16 c13 -16 12 -17 -3 -4 -17 13 -22 21 -14 21 2 0 10 -8 17 -17z
m-181 -51 c0 -4 -9 -13 -19 -19 -16 -10 -20 -9 -25 12 -3 13 -9 31 -13 41 -6
15 -2 15 25 -5 18 -12 32 -25 32 -29z m624 2 c3 -8 6 -18 7 -22 2 -13 21 -32
29 -27 8 5 76 -126 86 -167 10 -44 -10 -33 -42 23 -16 28 -34 60 -40 71 -7 11
-17 25 -23 31 -6 6 -11 18 -11 28 0 9 -9 28 -20 42 -11 14 -20 30 -20 36 0 14
27 3 34 -15z"/>
<path d="M5480 11080 c0 -5 5 -10 10 -10 6 0 10 5 10 10 0 6 -4 10 -10 10 -5
0 -10 -4 -10 -10z"/>
<path d="M5516 11059 c-14 -11 -26 -27 -26 -34 0 -8 -8 -19 -18 -24 -13 -7
-17 -19 -14 -49 3 -33 9 -41 35 -53 26 -11 33 -21 35 -49 2 -19 12 -46 23 -61
21 -29 25 -59 9 -59 -5 0 -10 5 -10 10 0 6 -5 10 -11 10 -18 0 -39 27 -39 50
0 20 -1 20 -16 5 -12 -11 -19 -13 -24 -5 -4 6 -14 8 -24 4 -12 -5 -19 -1 -22
13 -12 45 -121 78 -156 47 -11 -11 -33 -17 -58 -16 -27 1 -43 -4 -52 -16 -16
-20 -39 -36 -94 -62 -23 -11 -47 -27 -55 -36 -7 -8 -31 -25 -53 -36 -42 -21
-67 -42 -139 -117 -102 -106 -127 -135 -127 -148 0 -7 -7 -13 -15 -13 -9 0
-23 -16 -32 -35 -9 -19 -20 -35 -25 -35 -4 0 -8 -6 -8 -14 0 -7 -7 -19 -15
-26 -12 -10 -13 -16 -3 -27 10 -12 9 -17 -5 -24 -10 -6 -17 -22 -17 -38 0 -16
-7 -34 -15 -41 -8 -7 -15 -19 -15 -28 0 -20 -29 -41 -57 -42 -24 0 -31 -14
-13 -25 6 -3 10 -17 10 -29 0 -34 32 -69 76 -85 22 -7 47 -20 56 -28 9 -8 21
-12 27 -8 6 3 21 -3 33 -14 15 -15 25 -18 34 -10 8 7 14 7 19 -1 3 -5 1 -10
-6 -10 -20 0 24 -29 44 -30 9 0 17 -7 17 -15 0 -8 9 -15 20 -15 11 0 23 -7 26
-15 4 -10 13 -13 26 -9 24 7 68 -14 68 -32 0 -19 48 -25 110 -15 62 10 68 8
49 -15 -13 -16 -11 -17 22 -10 28 5 39 2 53 -13 10 -11 24 -17 32 -14 8 3 14
-1 14 -11 0 -9 7 -16 15 -16 9 0 15 9 15 25 0 16 6 25 16 25 14 0 14 -3 3 -16
-11 -13 -9 -14 14 -9 22 6 26 4 21 -9 -3 -9 -3 -16 1 -16 11 0 55 49 55 61 0
17 22 9 27 -10 7 -27 52 -32 79 -8 19 16 25 17 45 5 13 -7 29 -20 36 -28 11
-13 14 -12 19 8 3 12 10 22 14 22 15 0 17 -25 4 -45 -6 -11 -15 -30 -19 -42
-9 -31 13 -30 25 1 5 13 25 39 44 58 20 19 41 49 47 66 6 17 14 31 17 31 33
-5 62 3 62 17 0 11 6 13 19 9 14 -4 21 0 26 15 5 15 12 19 26 15 11 -4 19 -2
19 4 0 10 -14 15 -32 12 -5 0 -8 8 -8 18 0 14 5 18 20 14 25 -7 26 13 3 39
-15 17 -14 18 15 18 18 0 32 5 32 11 0 6 9 1 19 -12 17 -21 20 -22 26 -7 5 12
-4 30 -24 55 -30 37 -40 63 -23 63 5 0 14 -11 20 -25 6 -14 16 -25 21 -25 13
0 24 37 15 51 -4 7 8 1 27 -12 19 -13 36 -25 38 -26 2 -1 -2 -9 -8 -17 -10
-12 -8 -17 9 -26 26 -14 38 -6 21 14 -7 9 -8 17 -2 20 5 3 7 14 5 24 -2 10 6
24 21 35 18 13 25 14 25 5 0 -12 34 -48 45 -48 3 0 5 7 5 15 0 8 -8 15 -17 15
-25 0 -5 14 50 34 34 13 46 21 38 29 -7 7 -18 7 -36 -1 -41 -19 -65 -15 -65 9
0 14 5 19 13 16 8 -3 20 -1 28 5 11 8 10 9 -5 4 -15 -5 -17 -2 -12 16 3 13 6
26 6 31 0 4 5 7 11 7 7 0 20 9 30 21 9 11 20 20 23 20 19 -2 26 0 26 9 0 6 -8
10 -19 10 -10 0 -24 7 -31 15 -11 13 -7 15 24 15 22 0 35 4 31 10 -3 6 -19 10
-35 10 -37 0 -46 15 -19 34 21 14 21 14 -7 29 -16 9 -38 27 -48 41 -19 26 -46
35 -46 15 0 -5 -4 -7 -10 -4 -5 3 -10 15 -10 27 0 15 -3 18 -12 11 -9 -6 -21
-5 -36 2 -15 8 -20 15 -13 19 16 10 14 29 -3 23 -20 -8 -47 28 -33 43 9 10 5
11 -18 7 -34 -6 -65 7 -65 28 0 22 -20 28 -46 14 -21 -11 -26 -10 -39 7 -8 10
-17 33 -21 51 -4 22 -13 33 -31 38 -22 5 -24 9 -19 50 2 25 7 49 10 54 11 17
-17 24 -29 8 -17 -24 -25 -11 -14 26 6 20 5 33 -2 37 -5 4 -9 13 -7 21 2 9 -6
14 -22 14 -22 0 -25 4 -25 35 -1 30 -29 110 -39 110 -2 0 -15 -9 -30 -21z
m100 -326 c-10 -10 -19 5 -10 18 6 11 8 11 12 0 2 -7 1 -15 -2 -18z m91 -75
c-3 -8 -6 -5 -6 6 -1 11 2 17 5 13 3 -3 4 -12 1 -19z m-507 -258 c0 -5 -5 -10
-11 -10 -5 0 -7 5 -4 10 3 6 8 10 11 10 2 0 4 -4 4 -10z m68 -50 c4 -32 -16
-59 -49 -65 -24 -4 -25 -2 -28 39 -1 35 2 45 16 49 38 10 58 2 61 -23z m754
-77 c19 -17 26 -59 8 -48 -13 8 -43 65 -34 65 4 0 16 -7 26 -17z m45 -5 c-3
-8 -6 -5 -6 6 -1 11 2 17 5 13 3 -3 4 -12 1 -19z m-157 -150 c0 -6 -7 -5 -15
2 -8 7 -15 17 -15 22 0 6 7 5 15 -2 8 -7 15 -17 15 -22z m80 8 c0 -20 -19 -31
-32 -18 -6 6 -7 15 -4 21 10 16 36 13 36 -3z m-235 -46 c3 -6 -1 -7 -9 -4 -18
7 -21 14 -7 14 6 0 13 -4 16 -10z m-355 -320 c0 -5 -5 -10 -11 -10 -5 0 -7 5
-4 10 3 6 8 10 11 10 2 0 4 -4 4 -10z"/>
<path d="M3790 10910 c0 -5 4 -10 9 -10 6 0 13 5 16 10 3 6 -1 10 -9 10 -9 0
-16 -4 -16 -10z"/>
<path d="M9527 10822 c-25 -27 -21 -35 8 -16 25 16 33 34 17 34 -5 0 -16 -8
-25 -18z"/>
<path d="M9596 10805 c-11 -30 -6 -40 11 -22 12 12 14 20 6 28 -7 7 -12 6 -17
-6z"/>
<path d="M9885 10731 c-19 -18 -114 -48 -138 -44 -16 3 -33 -3 -52 -21 -15
-14 -36 -26 -45 -26 -19 0 -42 -22 -39 -36 5 -21 -23 -76 -41 -82 -7 -3 -10 0
-7 6 4 5 0 15 -8 22 -12 10 -15 9 -15 -4 0 -9 -4 -16 -10 -16 -5 0 -10 5 -10
11 0 5 -5 7 -10 4 -6 -4 -8 -10 -6 -14 3 -4 1 -13 -4 -21 -7 -12 -10 -12 -16
3 -5 14 -9 15 -21 5 -12 -10 -18 -9 -28 5 -7 9 -15 17 -19 17 -12 0 -6 -28 9
-40 17 -14 20 -30 5 -30 -5 0 -10 7 -10 15 0 10 -7 14 -22 11 -13 -3 -26 -5
-30 -5 -5 -1 -8 -11 -8 -23 0 -12 -3 -18 -7 -14 -4 4 -8 16 -8 26 0 11 -4 20
-10 19 -5 0 -9 -14 -9 -32 1 -18 0 -26 -3 -19 -7 19 -23 14 -23 -7 0 -21 -50
-37 -61 -19 -4 6 -11 8 -17 4 -6 -3 -13 -2 -17 4 -3 5 -18 10 -32 10 -20 0
-23 -3 -14 -14 9 -11 7 -15 -8 -19 -11 -2 -24 0 -30 6 -8 8 -11 7 -11 -4 0 -9
10 -21 23 -27 12 -6 16 -11 10 -11 -7 -1 -27 8 -45 19 -41 25 -56 26 -35 2 16
-17 15 -20 -13 -40 -40 -30 -39 -46 3 -37 31 7 32 7 15 -12 -23 -25 -23 -32 1
-26 29 7 35 -25 7 -38 -17 -8 -22 -17 -18 -35 6 -33 30 -30 35 4 4 25 4 25 6
-5 1 -22 -4 -33 -13 -33 -25 0 -26 -28 0 -45 14 -9 24 -21 23 -28 -3 -26 2
-36 16 -31 11 5 12 10 4 26 -9 16 -8 19 3 16 7 -3 16 -18 19 -34 5 -24 7 -26
13 -11 6 11 19 17 42 17 40 0 56 -23 58 -84 1 -31 5 -42 19 -44 15 -3 18 0 12
18 -5 16 -3 21 6 18 8 -3 16 -13 17 -24 2 -10 10 -24 18 -30 8 -7 13 -18 12
-25 -2 -8 3 -13 10 -12 17 4 15 -16 -3 -23 -23 -9 -18 -20 15 -34 36 -15 39
-30 5 -30 -31 0 -33 -17 -3 -22 24 -3 38 -28 15 -28 -11 0 -13 -7 -9 -22 7
-29 38 -58 62 -58 16 0 20 -7 20 -34 0 -19 5 -38 10 -41 6 -3 10 0 10 8 0 8 9
22 20 32 24 22 26 8 4 -23 -8 -12 -10 -22 -5 -22 6 0 11 5 11 11 0 8 5 8 15
-1 12 -10 15 -9 16 6 0 15 3 14 11 -6 8 -20 12 -22 17 -10 17 43 71 86 71 58
0 -6 -8 -17 -17 -24 -16 -12 -16 -13 9 -14 14 0 29 -6 32 -12 3 -10 9 -8 19 5
8 9 23 17 33 17 17 -1 17 -2 2 -10 -10 -6 -14 -18 -11 -30 6 -24 15 -25 53 -5
30 16 64 11 57 -9 -2 -6 -11 -10 -20 -8 -22 4 -35 -27 -27 -63 l7 -30 14 33
c16 38 22 40 37 10 10 -23 11 -23 11 5 1 30 17 35 47 12 16 -12 17 -16 5 -24
-12 -8 -12 -11 1 -24 13 -13 16 -13 26 4 14 22 -3 69 -26 69 -8 0 -12 6 -9 14
4 9 -2 18 -15 22 -19 6 -19 7 -5 16 11 6 23 5 35 -1 9 -6 13 -11 7 -11 -5 0 3
-8 20 -18 l30 -18 20 30 c16 24 29 31 54 32 18 0 36 5 39 12 5 7 13 8 22 2 8
-5 25 -7 38 -3 12 3 29 0 37 -7 12 -10 16 -9 20 3 5 11 14 13 42 7 35 -8 35
-8 29 20 -4 25 0 32 28 49 36 22 66 27 66 11 0 -5 5 -10 11 -10 5 0 8 4 5 9
-3 4 12 16 34 26 26 12 40 25 40 37 0 10 4 18 9 18 5 0 11 9 14 20 3 13 10 18
21 14 11 -4 16 -1 16 10 0 18 81 106 97 106 5 0 18 9 27 19 20 22 15 36 -22
65 -13 10 -21 25 -18 32 3 8 2 14 -3 14 -5 0 -12 11 -15 25 -4 14 -11 25 -16
25 -6 0 -10 12 -10 28 0 15 -7 37 -15 48 -8 12 -20 39 -28 61 -13 38 -95 155
-125 178 -7 6 -14 23 -16 39 -2 16 -11 33 -21 39 -11 6 -30 23 -43 39 -18 21
-31 27 -55 25 -26 -2 -33 2 -35 19 -3 23 -40 45 -86 51 -16 2 -34 9 -40 17
-15 18 -44 27 -51 16 -12 -19 -33 -11 -28 10 4 15 0 20 -16 20 -11 0 -21 5
-21 10 0 13 -63 13 -75 1z m-153 -73 c-7 -7 -12 -8 -12 -2 0 14 12 26 19 19 2
-3 -1 -11 -7 -17z m-266 -213 c0 -20 -4 -34 -10 -32 -6 2 -11 9 -10 15 1 7 2
21 3 32 2 35 17 22 17 -15z m-309 -121 c-3 -3 -12 -4 -19 -1 -8 3 -5 6 6 6 11
1 17 -2 13 -5z m-42 -24 c3 -5 1 -10 -4 -10 -6 0 -11 5 -11 10 0 6 2 10 4 10
3 0 8 -4 11 -10z m1335 -15 c0 -8 -2 -15 -4 -15 -2 0 -6 7 -10 15 -3 8 -1 15
4 15 6 0 10 -7 10 -15z m-536 -60 c4 -13 10 -14 26 -5 17 9 25 6 45 -14 29
-29 31 -43 8 -68 -23 -26 -53 -22 -90 12 -37 34 -36 30 -23 64 11 29 25 34 34
11z m-214 -575 c0 -5 -4 -10 -10 -10 -5 0 -10 5 -10 10 0 6 5 10 10 10 6 0 10
-4 10 -10z m62 -42 c-9 -9 -12 -7 -12 12 0 19 3 21 12 12 9 -9 9 -15 0 -24z
m193 12 c-27 -12 -35 -12 -35 0 0 6 12 10 28 9 24 0 25 -1 7 -9z"/>
<path d="M9566 10581 c-4 -7 -5 -15 -2 -18 9 -9 19 4 14 18 -4 11 -6 11 -12 0z"/>
<path d="M9375 10550 c-3 -5 -1 -10 4 -10 6 0 11 5 11 10 0 6 -2 10 -4 10 -3
0 -8 -4 -11 -10z"/>
<path d="M3725 10230 c3 -5 10 -10 16 -10 5 0 9 5 9 10 0 6 -7 10 -16 10 -8 0
-12 -4 -9 -10z"/>
<path d="M3705 10210 c-3 -5 1 -10 9 -10 9 0 16 5 16 10 0 6 -4 10 -9 10 -6 0
-13 -4 -16 -10z"/>
<path d="M3701 10157 c-6 -8 -8 -16 -6 -19 7 -7 -16 -58 -25 -58 -5 0 -7 -8
-6 -17 0 -10 -9 -19 -23 -23 -13 -3 -29 -14 -34 -25 -6 -11 -14 -27 -18 -35
-4 -8 -12 -14 -17 -13 -6 1 -15 -4 -22 -12 -6 -7 -18 -11 -26 -8 -8 3 -14 0
-14 -6 0 -6 -6 -11 -13 -11 -16 0 -53 -37 -45 -45 3 -3 18 1 34 9 25 13 30 13
44 1 11 -10 20 -11 27 -4 7 7 14 5 22 -5 10 -12 8 -16 -8 -21 -12 -3 -21 -11
-21 -16 0 -5 -9 -9 -19 -9 -11 0 -23 -4 -26 -10 -3 -5 -17 -10 -31 -10 -13 0
-24 -4 -24 -8 0 -5 -19 -15 -42 -23 -24 -7 -52 -24 -62 -38 -11 -13 -30 -34
-43 -47 -22 -22 -24 -52 -3 -39 4 3 6 -4 3 -15 -3 -13 0 -20 8 -20 11 0 11 -2
0 -9 -9 -6 -15 -30 -17 -65 -1 -30 -6 -70 -10 -88 -4 -18 -8 -46 -10 -63 -8
-76 -64 -286 -90 -337 -8 -15 -14 -35 -13 -45 0 -11 3 -13 6 -5 2 6 9 10 13 7
11 -7 -8 -62 -44 -133 -14 -28 -28 -77 -32 -109 -3 -32 -20 -102 -36 -156 -31
-98 -32 -121 -3 -97 19 16 19 9 1 -35 -10 -22 -11 -35 -4 -35 15 0 0 -50 -20
-69 -29 -27 -5 -162 24 -143 6 4 21 27 33 52 15 32 20 37 16 17 -3 -15 -19
-50 -36 -77 -17 -27 -28 -54 -25 -59 4 -5 1 -21 -5 -35 -20 -43 0 -43 36 -1
19 22 34 35 35 29 0 -7 -13 -26 -30 -44 -17 -19 -30 -43 -30 -58 0 -20 3 -23
12 -14 30 30 38 -6 13 -54 -16 -32 -13 -39 11 -30 9 3 14 13 11 20 -3 8 0 20
8 26 8 6 16 43 20 86 4 41 9 73 12 70 6 -5 15 -114 16 -183 0 -35 4 -50 12
-46 17 6 29 -29 13 -38 -7 -4 -15 -4 -19 2 -3 5 -11 -2 -18 -17 -14 -31 -8
-42 13 -25 11 9 15 8 20 -5 10 -27 7 -89 -6 -102 -9 -9 -9 -15 0 -24 7 -7 12
-27 12 -46 0 -28 -3 -32 -19 -27 -18 6 -19 1 -15 -71 3 -56 11 -92 29 -129 21
-41 26 -67 26 -136 1 -50 6 -87 13 -91 8 -6 7 -10 -2 -16 -14 -9 -8 -37 14
-62 15 -19 29 -90 17 -90 -5 0 -14 14 -20 31 -7 17 -16 28 -22 25 -11 -7 -3
-37 13 -48 6 -4 12 -26 13 -48 2 -51 25 -150 30 -132 3 6 9 12 15 12 7 0 8
-24 4 -67 -3 -40 -2 -60 3 -48 7 18 9 16 15 -13 4 -18 12 -30 16 -27 5 3 9 -7
9 -22 -1 -42 29 -157 41 -161 5 -2 10 -17 10 -33 0 -16 4 -37 9 -47 5 -9 14
-37 21 -62 14 -53 60 -161 60 -142 0 6 5 12 11 12 6 0 8 -9 4 -20 -5 -15 -2
-20 12 -20 15 0 22 -13 32 -59 7 -33 10 -76 6 -98 -5 -30 -2 -43 9 -53 9 -7
16 -24 16 -38 0 -23 15 -86 28 -122 3 -8 6 -22 7 -31 1 -9 16 -36 32 -60 17
-24 34 -58 37 -76 4 -17 14 -37 22 -44 8 -6 14 -27 14 -45 0 -19 3 -34 8 -34
9 0 32 -49 32 -68 0 -8 6 -26 14 -40 7 -15 18 -38 24 -52 6 -14 25 -59 43
-100 17 -41 41 -88 52 -104 l21 -29 -25 6 c-24 6 -25 5 -23 -41 1 -26 6 -69
12 -97 9 -44 16 -177 13 -257 -1 -17 -7 -28 -15 -28 -17 0 -18 -90 -1 -103 6
-6 3 -7 -6 -4 -13 4 -18 -4 -23 -41 -4 -29 -16 -58 -31 -76 -28 -33 -35 -79
-10 -70 9 4 15 0 15 -9 0 -20 -22 -35 -28 -19 -2 7 -8 10 -13 7 -5 -4 -1 -18
8 -32 16 -23 16 -26 0 -35 -9 -5 -17 -15 -17 -22 0 -8 -6 -16 -14 -19 -19 -7
-42 -48 -25 -45 16 4 18 -73 2 -79 -18 -7 -16 -34 4 -48 16 -12 10 -40 -7 -30
-5 3 -13 -14 -17 -37 -7 -33 -6 -44 4 -46 17 -4 16 -10 -2 -28 -8 -9 -15 -24
-15 -35 0 -10 -7 -19 -15 -19 -8 0 -15 -4 -15 -10 0 -5 7 -10 15 -10 21 0 19
-20 -2 -21 -11 0 -13 -3 -5 -6 15 -6 16 -33 1 -33 -6 0 -9 -7 -5 -15 3 -8 -4
-24 -15 -34 -22 -20 -18 -41 5 -41 8 0 21 -12 31 -26 16 -24 16 -26 -4 -31
-12 -3 -21 -13 -21 -22 0 -14 -2 -14 -10 -1 -5 8 -12 11 -16 7 -4 -4 -2 -13 4
-19 7 -7 12 -20 12 -31 0 -10 5 -15 11 -12 6 4 8 13 5 21 -3 8 1 14 9 14 11 0
15 -13 15 -50 0 -27 4 -50 9 -50 19 0 -3 -40 -34 -65 -26 -19 -33 -32 -33 -55
1 -17 4 -33 8 -35 4 -2 26 2 51 9 94 28 97 28 101 4 2 -19 8 -22 36 -20 37 4
41 -7 10 -27 l-22 -14 22 -8 c12 -5 29 -6 37 -3 11 5 13 2 8 -11 -6 -16 -2
-18 41 -12 26 4 45 3 42 -2 -3 -4 7 -6 22 -4 21 4 24 2 12 -6 -18 -12 -19 -41
-3 -59 16 -16 33 -7 33 17 0 25 49 35 72 14 9 -8 21 -12 27 -9 23 14 19 -14
-4 -32 -16 -13 -22 -23 -15 -27 11 -7 39 10 53 33 5 7 13 9 20 5 6 -4 28 -6
50 -4 35 2 38 0 32 -19 -8 -24 -8 -24 52 -4 33 11 48 13 51 5 6 -17 42 -13 42
4 0 14 12 19 33 16 14 -2 7 28 -10 37 -14 8 -13 12 9 26 16 10 35 15 50 11 13
-3 37 -1 53 6 21 8 25 13 14 16 -9 2 -21 21 -28 42 -13 46 -14 64 -2 57 4 -3
19 6 32 20 19 20 21 27 10 34 -8 4 -11 15 -8 24 5 11 1 16 -13 16 -25 0 -26
27 -4 59 14 19 14 27 4 46 -7 12 -9 32 -5 44 4 15 2 21 -8 21 -18 0 -12 34 9
51 13 10 12 14 0 28 -9 10 -19 35 -24 56 -5 26 -16 44 -30 51 -26 13 -42 27
-27 24 25 -5 26 2 1 27 -18 18 -26 34 -22 47 4 14 -4 28 -26 48 l-31 27 24 20
24 20 -22 20 c-12 12 -31 21 -43 21 -23 0 -26 19 -7 39 10 11 9 13 -5 8 -11
-4 -15 -2 -12 7 3 7 -2 19 -11 26 -14 12 -14 15 2 32 17 19 17 21 -5 38 -13
11 -22 29 -22 47 0 31 -15 53 -34 49 -6 -2 -8 -1 -5 1 3 2 2 23 -3 46 -5 23
-12 59 -15 80 -4 28 -12 41 -29 49 -13 6 -21 14 -19 19 3 4 1 18 -4 31 -5 13
-14 43 -21 68 -7 25 -25 73 -41 107 -16 35 -29 68 -29 75 0 7 -16 33 -35 57
-19 24 -35 50 -35 58 0 19 20 6 29 -21 7 -18 9 -15 15 21 6 30 3 50 -10 75
-10 18 -18 43 -19 55 0 12 -9 31 -19 42 -11 12 -15 21 -10 21 19 1 46 29 39
40 -6 9 -10 9 -16 -1 -6 -10 -9 -10 -9 -2 0 6 4 15 10 18 6 4 5 17 -5 35 -13
25 -13 29 0 40 20 17 19 33 -5 55 -11 10 -20 24 -20 32 0 7 -7 16 -15 19 -12
5 -14 18 -11 55 4 37 2 49 -8 49 -16 0 -28 24 -20 44 3 7 -1 20 -8 27 -8 8
-15 37 -16 64 -1 28 -14 93 -28 145 -14 52 -28 109 -30 125 -3 17 -8 37 -11
45 -4 8 -5 21 -4 28 1 8 -5 24 -13 37 -9 14 -16 40 -16 60 0 19 -3 35 -7 35
-5 0 -9 21 -10 46 -2 31 -8 51 -20 59 -13 10 -15 16 -6 26 13 17 6 64 -12 79
-9 7 -10 21 -5 47 9 36 2 57 -29 96 -8 10 -16 32 -17 50 -2 18 -5 48 -9 67 -7
39 -16 113 -18 148 -1 12 -5 22 -8 22 -3 0 -7 21 -8 46 0 26 -4 51 -8 58 -4 6
-8 48 -9 93 -1 45 -4 86 -6 90 -3 8 -2 45 5 193 2 36 -1 71 -6 77 -5 7 -6 21
-2 30 12 28 12 127 0 136 -7 6 -6 10 3 14 10 4 10 8 1 20 -10 11 -10 16 0 23
10 6 9 10 -5 18 -17 9 -17 14 -6 32 10 17 11 25 1 36 -15 19 -21 64 -8 64 17
0 9 18 -11 23 -16 4 -20 11 -16 31 3 14 7 30 10 35 3 5 -2 12 -11 15 -14 6
-15 9 -4 15 9 6 10 14 3 27 -5 11 -8 35 -7 54 2 19 0 40 -4 45 -4 6 -8 26 -9
45 -1 19 -5 47 -8 62 -3 14 -1 29 4 32 5 3 8 47 7 98 -2 75 1 99 16 127 21 40
24 61 9 61 -5 0 -10 13 -10 29 0 17 -4 32 -9 35 -5 4 -6 18 -2 34 4 15 3 34
-2 43 -7 11 -3 32 17 74 31 68 31 72 9 54 -17 -13 -17 -13 0 13 9 15 17 33 17
40 0 8 8 24 17 38 10 13 18 48 20 79 2 30 7 59 12 65 5 6 11 27 14 46 16 108
21 126 34 142 9 10 12 25 8 37 -4 14 0 23 14 31 11 5 18 16 15 24 -3 8 2 48
11 91 8 42 18 96 20 118 7 55 7 235 0 317 -3 36 -7 102 -10 148 -2 45 -9 99
-14 120 -6 21 -9 52 -6 70 5 42 -23 75 -50 59 -15 -8 -17 -7 -12 7 8 19 -6 21
-22 3z m-43 -175 c-30 -39 -54 -62 -65 -62 -7 0 -1 11 12 25 14 13 25 31 25
39 0 15 20 26 33 19 4 -3 2 -12 -5 -21z m-67 -228 c-11 -14 -17 -32 -14 -40 3
-8 0 -21 -7 -29 -7 -9 -10 -18 -6 -22 3 -3 6 -2 6 4 0 6 7 13 15 17 13 5 14 2
4 -15 -7 -13 -17 -19 -29 -16 -10 3 -29 -2 -42 -11 l-22 -16 21 30 c15 21 19
35 12 45 -7 10 1 22 28 46 46 39 62 43 34 7z m-61 -9 c0 -10 -55 -67 -84 -88
l-28 -20 11 22 c7 12 23 27 36 33 12 5 29 21 36 34 11 21 29 33 29 19z m66
-140 c-5 -27 -4 -35 8 -35 10 0 13 -6 10 -15 -4 -8 -10 -13 -14 -10 -4 3 -13
-2 -20 -10 -20 -24 -43 -19 -34 7 6 20 5 21 -10 9 -31 -26 -28 -3 5 43 40 57
64 61 55 11z m-420 -1109 c-9 -14 -13 -31 -11 -39 5 -12 -42 -74 -50 -66 -5 6
34 87 53 109 23 28 28 25 8 -4z m5 -257 c-5 -13 -10 -19 -10 -12 -1 15 10 45
15 40 3 -2 0 -15 -5 -28z m35 -506 c-10 -10 -19 5 -10 18 6 11 8 11 12 0 2 -7
1 -15 -2 -18z m81 -110 c-3 -10 -5 -2 -5 17 0 19 2 27 5 18 2 -10 2 -26 0 -35z
m-80 -15 c-3 -7 -5 -2 -5 12 0 14 2 19 5 13 2 -7 2 -19 0 -25z m103 -55 c0 -7
-4 -13 -10 -13 -5 0 -10 12 -10 28 0 21 2 24 10 12 5 -8 10 -21 10 -27z m-116
-8 c-4 -8 -8 -15 -10 -15 -2 0 -4 7 -4 15 0 8 4 15 10 15 5 0 7 -7 4 -15z m66
-55 c0 -5 -2 -10 -4 -10 -3 0 -8 5 -11 10 -3 6 -1 10 4 10 6 0 11 -4 11 -10z
m60 -4 c0 -7 3 -29 6 -47 4 -19 3 -31 -1 -27 -11 11 -24 88 -14 88 5 0 9 -6 9
-14z m34 -22 c3 -8 2 -12 -4 -9 -6 3 -10 10 -10 16 0 14 7 11 14 -7z m-94 -86
c0 -49 -5 -47 -13 5 -3 20 -2 37 4 37 5 0 9 -19 9 -42z m37 -90 c-3 -7 -5 -2
-5 12 0 14 2 19 5 13 2 -7 2 -19 0 -25z m87 -103 c-4 -8 -8 -15 -10 -15 -2 0
-4 7 -4 15 0 8 4 15 10 15 5 0 7 -7 4 -15z m56 -110 c0 -8 -4 -15 -10 -15 -5
0 -10 7 -10 15 0 8 5 15 10 15 6 0 10 -7 10 -15z m-160 -65 c0 -5 -4 -10 -10
-10 -5 0 -10 5 -10 10 0 6 5 10 10 10 6 0 10 -4 10 -10z m200 -60 c0 -5 -2
-10 -4 -10 -3 0 -8 5 -11 10 -3 6 -1 10 4 10 6 0 11 -4 11 -10z m25 -40 c3 -5
1 -10 -4 -10 -6 0 -11 5 -11 10 0 6 2 10 4 10 3 0 8 -4 11 -10z m-173 -80 c-6
-15 -11 -19 -16 -12 -10 17 4 56 15 45 6 -6 6 -19 1 -33z m62 -198 c-1 -7 -2
-22 -3 -34 -1 -19 -3 -20 -11 -8 -14 22 -12 62 3 58 6 -3 12 -10 11 -16z m79
-262 c3 -11 1 -18 -4 -14 -5 3 -9 12 -9 20 0 20 7 17 13 -6z m337 -515 c-22
-35 -40 -46 -40 -22 0 7 12 30 27 52 21 31 28 36 31 22 2 -9 -6 -33 -18 -52z
m700 -2305 c0 -11 -4 -20 -10 -20 -5 0 -10 2 -10 4 0 2 -3 11 -6 20 -4 11 -1
16 10 16 9 0 16 -8 16 -20z m-20 -70 c0 -5 -4 -10 -10 -10 -5 0 -10 5 -10 10
0 6 5 10 10 10 6 0 10 -4 10 -10z m30 -54 c0 -9 -7 -12 -20 -9 -11 3 -20 9
-20 14 0 5 9 9 20 9 11 0 20 -6 20 -14z"/>
<path d="M4440 10150 c0 -5 7 -10 15 -10 8 0 15 5 15 10 0 6 -7 10 -15 10 -8
0 -15 -4 -15 -10z"/>
<path d="M3640 10110 c0 -5 5 -10 10 -10 6 0 10 5 10 10 0 6 -4 10 -10 10 -5
0 -10 -4 -10 -10z"/>
<path d="M3455 10050 c-3 -6 1 -7 9 -4 18 7 21 14 7 14 -6 0 -13 -4 -16 -10z"/>
<path d="M3551 10050 c-7 -4 -12 -13 -10 -19 3 -8 10 -8 23 2 21 15 9 31 -13
17z"/>
<path d="M9220 10050 c0 -5 5 -10 10 -10 6 0 10 5 10 10 0 6 -4 10 -10 10 -5
0 -10 -4 -10 -10z"/>
<path d="M9140 10031 c0 -6 4 -13 10 -16 6 -3 7 1 4 9 -7 18 -14 21 -14 7z"/>
<path d="M9200 10030 c0 -5 5 -10 11 -10 5 0 7 5 4 10 -3 6 -8 10 -11 10 -2 0
-4 -4 -4 -10z"/>
<path d="M5756 9794 c-4 -11 -1 -14 11 -12 9 2 18 9 21 16 6 18 -25 15 -32 -4z"/>
<path d="M5320 9705 c-10 -12 -10 -15 4 -15 9 0 16 7 16 15 0 8 -2 15 -4 15
-2 0 -9 -7 -16 -15z"/>
<path d="M5612 9698 c-14 -14 -16 -42 -3 -34 5 4 11 0 14 -6 5 -15 36 19 37
40 0 15 -32 16 -48 0z"/>
<path d="M10310 9700 c0 -5 5 -10 10 -10 6 0 10 5 10 10 0 6 -4 10 -10 10 -5
0 -10 -4 -10 -10z"/>
<path d="M10283 9670 c2 -8 12 -16 23 -17 13 -2 15 -1 4 4 -8 3 -19 11 -23 17
-6 7 -7 6 -4 -4z"/>
<path d="M3270 9649 c0 -5 5 -7 10 -4 6 3 10 8 10 11 0 2 -4 4 -10 4 -5 0 -10
-5 -10 -11z"/>
<path d="M5410 9641 c-17 -33 -11 -47 10 -21 11 14 20 28 20 33 0 14 -20 7
-30 -12z"/>
<path d="M5576 9644 c-9 -22 -7 -52 2 -38 4 6 12 13 19 15 9 3 8 9 -2 22 -11
16 -13 16 -19 1z"/>
<path d="M10000 9600 c0 -21 16 -26 39 -11 11 7 10 11 -7 20 -28 15 -32 14
-32 -9z"/>
<path d="M9686 9557 c3 -10 9 -15 12 -12 3 3 0 11 -7 18 -10 9 -11 8 -5 -6z"/>
<path d="M11302 9522 c-1 -26 -2 -56 -2 -67 -3 -43 11 -181 20 -205 5 -14 12
-43 14 -65 3 -22 8 -62 11 -90 10 -85 14 -95 35 -95 11 0 20 -4 20 -10 0 -5
-7 -10 -15 -10 -10 0 -15 -10 -15 -32 l0 -31 25 23 c17 16 24 33 23 49 -2 16
2 25 9 24 7 -2 14 22 19 64 6 58 4 72 -16 107 -12 23 -21 46 -19 51 2 9 -10
59 -33 133 -5 19 -8 36 -5 39 3 2 -5 25 -19 50 -13 25 -24 56 -24 68 0 13 -6
27 -13 34 -11 8 -14 1 -15 -37z m98 -487 c-6 -15 -13 -25 -17 -21 -3 3 0 17 7
31 17 32 24 26 10 -10z"/>
<path d="M5425 9550 c-3 -5 -1 -10 4 -10 6 0 11 5 11 10 0 6 -2 10 -4 10 -3 0
-8 -4 -11 -10z"/>
<path d="M9720 9536 c0 -8 5 -18 10 -21 6 -3 10 3 10 14 0 12 -4 21 -10 21 -5
0 -10 -6 -10 -14z"/>
<path d="M11408 9364 c-4 -3 -2 -18 2 -34 4 -16 6 -30 4 -33 -2 -2 2 -16 10
-31 21 -41 29 -14 14 49 -12 53 -18 62 -30 49z"/>
<path d="M11490 9270 c0 -5 5 -10 11 -10 5 0 7 5 4 10 -3 6 -8 10 -11 10 -2 0
-4 -4 -4 -10z"/>
<path d="M11461 9183 c-1 -17 4 -35 10 -38 19 -13 23 5 6 38 l-16 32 0 -32z"/>
<path d="M7303 9185 c-16 -11 -32 -13 -66 -6 -37 6 -44 5 -40 -6 4 -9 0 -11
-11 -7 -9 3 -16 2 -16 -4 0 -10 -47 -27 -64 -23 -4 1 -14 -4 -22 -10 -11 -9
-18 -8 -29 1 -12 10 -28 10 -78 -1 -34 -7 -70 -12 -79 -12 -10 1 -18 -5 -18
-13 0 -8 -9 -14 -20 -14 -11 0 -20 -4 -20 -10 0 -6 -9 -6 -26 0 -33 13 -34 13
-28 -5 4 -10 0 -15 -14 -15 -12 0 -25 -7 -30 -16 -5 -10 -23 -16 -45 -17 -23
-1 -37 -6 -37 -14 0 -7 -11 -13 -25 -13 -14 0 -25 -5 -25 -10 0 -6 -16 -18
-35 -27 -19 -9 -35 -23 -35 -30 0 -7 -6 -13 -13 -13 -13 0 -55 -34 -130 -102
-17 -16 -34 -28 -39 -28 -5 0 -7 -4 -4 -9 3 -5 -12 -21 -34 -36 -22 -15 -52
-48 -66 -74 -15 -25 -33 -50 -41 -54 -7 -4 -13 -15 -13 -23 0 -17 -15 -53 -56
-139 -13 -28 -24 -60 -24 -72 0 -12 -4 -24 -8 -27 -5 -3 -8 -27 -7 -53 1 -28
-5 -65 -15 -89 -9 -22 -21 -72 -25 -110 -4 -38 -14 -77 -22 -86 -9 -10 -13
-24 -10 -33 4 -8 2 -15 -3 -15 -6 0 -10 -4 -10 -10 0 -5 6 -10 13 -10 14 0 21
-76 7 -85 -5 -3 -7 -19 -4 -34 4 -16 1 -32 -5 -35 -6 -4 -11 -13 -11 -21 0 -8
-11 -26 -25 -41 -14 -15 -25 -36 -25 -48 0 -20 0 -20 16 2 8 12 19 22 25 22
18 0 8 -44 -18 -78 -15 -20 -28 -48 -30 -64 -2 -16 -7 -38 -13 -48 -14 -25
-13 -40 3 -40 7 0 18 14 24 30 6 17 22 34 35 39 29 11 38 3 15 -13 -9 -7 -17
-21 -17 -31 0 -27 -85 -120 -129 -142 -30 -15 -37 -23 -29 -31 7 -7 18 -12 25
-12 6 0 16 -6 20 -14 4 -8 17 -16 28 -19 19 -5 19 -5 -2 -12 -13 -4 -23 -14
-23 -21 0 -8 -4 -14 -10 -14 -13 0 -13 -27 0 -35 6 -4 17 -1 25 5 11 9 15 9
15 1 0 -6 -4 -11 -9 -11 -5 0 -11 -9 -14 -19 -6 -24 -66 -63 -85 -56 -9 3 -12
-1 -10 -13 2 -11 13 -17 33 -18 47 -2 50 -3 34 -16 -8 -7 -25 -26 -39 -42 -23
-27 -24 -28 -3 -17 33 17 50 13 56 -11 5 -16 -1 -30 -18 -48 -14 -15 -25 -33
-25 -41 0 -10 2 -11 8 -2 4 7 24 16 42 19 34 7 35 7 18 -13 -20 -21 -24 -43
-8 -43 5 0 6 -8 3 -17 -7 -17 -6 -17 11 0 19 18 51 23 61 8 3 -5 1 -12 -5 -16
-5 -3 -10 -15 -10 -27 0 -16 5 -19 21 -15 13 3 19 1 16 -6 -4 -13 -41 -14 -72
-3 -16 6 -17 6 -5 -3 13 -10 12 -14 -6 -29 -11 -10 -18 -24 -16 -31 3 -10 0
-12 -12 -8 -9 4 -16 2 -16 -3 0 -5 11 -12 25 -16 27 -7 33 -32 13 -53 -11 -11
-9 -13 11 -8 14 3 30 2 37 -4 9 -7 16 -4 27 11 14 20 15 20 20 2 6 -27 -3 -39
-36 -47 -19 -5 -27 -3 -28 6 -1 18 -17 -21 -18 -42 -1 -13 8 -17 34 -17 31 0
35 3 29 20 -4 14 -2 18 5 14 16 -10 53 13 47 29 -3 8 -1 17 5 20 13 9 23 -23
11 -38 -12 -15 -14 -79 -1 -72 5 4 9 -1 9 -9 0 -10 9 -16 25 -16 32 0 32 -13
-1 -35 -15 -9 -22 -20 -17 -24 5 -3 12 -14 16 -24 6 -15 3 -17 -12 -12 -14 4
-23 0 -30 -13 -6 -11 -24 -25 -41 -32 -16 -7 -30 -16 -30 -21 0 -12 43 -7 52
6 4 6 8 2 8 -7 0 -10 7 -18 15 -18 8 0 15 -7 15 -15 0 -8 4 -15 9 -15 5 0 16
-2 23 -5 9 -4 14 2 15 15 1 12 16 37 33 56 24 28 31 32 36 19 4 -9 -2 -25 -15
-39 -11 -12 -21 -32 -21 -43 0 -29 -53 -80 -92 -88 -40 -9 -72 -39 -64 -60 4
-11 -2 -19 -21 -26 -24 -9 -25 -10 -9 -28 19 -21 55 -17 69 6 11 18 31 17 23
-2 -7 -18 15 -20 32 -3 17 17 15 38 -3 38 -22 0 -18 21 9 55 l23 29 8 -23 c5
-17 3 -26 -9 -33 -13 -7 -14 -12 -3 -30 9 -16 9 -22 0 -25 -7 -3 -13 -10 -13
-17 0 -15 -34 -48 -42 -41 -3 3 -11 -1 -18 -10 -11 -13 -8 -15 19 -15 17 0 31
4 31 9 0 12 58 32 64 22 8 -12 -10 -33 -25 -30 -16 3 -79 -32 -79 -43 0 -10
31 2 52 19 14 13 18 12 28 -6 14 -27 6 -41 -22 -33 -14 3 -19 2 -14 -7 4 -6
12 -9 17 -6 5 4 9 -4 9 -15 0 -15 -5 -20 -15 -17 -8 4 -17 2 -20 -3 -4 -6 2
-10 12 -11 14 0 13 -2 -5 -10 l-23 -9 26 -24 c29 -27 23 -36 -30 -38 -19 -1
-35 -5 -35 -9 0 -4 -3 -16 -6 -26 -4 -11 -3 -14 3 -7 5 7 15 4 31 -12 l22 -24
-25 -6 c-41 -10 -28 -25 16 -18 33 6 41 4 37 -7 -3 -9 -23 -15 -54 -17 -26 -2
-54 -8 -61 -13 -15 -13 -6 -39 14 -39 12 0 11 -3 -2 -17 -16 -16 -14 -17 26
-30 52 -15 79 -16 79 -3 0 5 -7 13 -17 18 -18 11 -27 58 -12 67 14 9 40 -21
33 -39 -3 -9 -1 -16 6 -16 7 0 9 -8 5 -19 -3 -11 -1 -22 5 -26 8 -5 8 -11 -1
-21 -15 -18 -39 -17 -63 1 -25 19 -50 19 -66 0 -11 -13 -8 -15 16 -15 22 0 25
-3 16 -12 -20 -20 -14 -28 18 -21 24 4 30 2 30 -12 0 -12 6 -16 20 -12 25 6
26 -4 2 -24 -31 -27 -44 -32 -40 -18 1 8 -1 14 -7 14 -5 0 -10 -8 -10 -17 -1
-10 2 -18 7 -18 4 0 0 -9 -9 -20 -10 -11 -27 -20 -40 -20 -31 0 -35 -13 -17
-49 9 -17 13 -37 11 -44 -3 -7 -6 -5 -6 6 -1 19 -2 20 -54 8 -22 -5 -39 -5
-43 0 -3 5 -10 6 -16 3 -18 -11 22 -34 60 -34 33 0 34 -1 19 -18 -22 -24 -22
-39 -1 -21 14 11 18 10 30 -6 13 -17 12 -21 -8 -32 -13 -7 -37 -12 -54 -13
-19 0 -34 -6 -37 -15 -5 -11 0 -13 23 -8 23 4 30 2 30 -10 0 -8 -8 -18 -17
-22 -17 -6 -17 -7 0 -19 20 -15 23 -42 5 -49 -10 -3 -10 -7 -1 -17 11 -13 73
-5 73 9 0 4 28 8 63 9 61 2 61 1 33 -13 -15 -8 -39 -15 -52 -15 -13 0 -24 -5
-24 -11 0 -10 51 -9 115 2 13 3 20 -1 20 -11 0 -8 -9 -15 -20 -16 -11 -1 -33
-5 -50 -10 l-30 -8 35 -6 c40 -6 49 -33 13 -38 -13 -2 -23 -9 -23 -16 0 -19
27 -39 40 -31 7 4 14 -2 17 -14 3 -12 10 -21 15 -21 6 0 7 -11 4 -24 -3 -14
-1 -28 5 -32 15 -9 4 -75 -21 -122 -11 -20 -20 -44 -20 -53 0 -9 -7 -33 -15
-53 -13 -30 -20 -36 -35 -31 -13 4 -22 1 -26 -10 -9 -22 3 -30 22 -15 13 12
17 11 25 -1 16 -25 5 -44 -29 -47 -22 -2 -32 1 -32 11 0 7 -11 19 -24 26 -16
9 -28 29 -36 60 -7 25 -18 63 -26 85 -11 29 -12 41 -3 52 7 8 9 17 6 21 -10 9
-49 32 -68 39 -14 5 -16 18 -13 77 6 125 12 139 52 135 22 -2 28 2 30 21 3 21
1 23 -20 16 -12 -4 -40 -10 -62 -12 l-38 -5 7 31 c4 20 3 31 -4 31 -6 0 -11
-8 -11 -19 0 -10 -7 -24 -15 -31 -8 -7 -15 -19 -15 -27 0 -13 -3 -13 -15 -3
-8 7 -15 19 -15 27 0 10 -4 11 -19 3 -15 -7 -23 -6 -33 4 -32 31 -80 48 -104
37 -16 -7 -24 -7 -24 0 0 6 -6 6 -19 -1 -33 -17 -72 -12 -78 10 -3 11 -12 20
-19 20 -8 0 -14 5 -14 11 0 6 -7 9 -15 5 -12 -4 -14 0 -9 18 5 21 2 23 -42 25
-51 1 -67 14 -58 44 5 15 1 18 -17 15 -17 -2 -29 5 -44 29 -12 20 -28 32 -42
33 -17 0 -23 6 -23 22 0 17 -3 19 -12 10 -20 -20 -28 -14 -22 17 5 23 2 32
-15 43 -12 7 -21 18 -21 25 0 7 -7 13 -15 13 -8 0 -15 7 -15 15 0 9 -7 18 -15
21 -13 5 -13 9 -3 21 10 13 7 19 -17 39 -17 14 -29 29 -27 35 1 5 -12 16 -29
23 -27 11 -29 14 -13 20 17 6 13 12 -25 48 -35 31 -42 42 -30 49 8 5 10 9 5 9
-5 0 -3 6 3 14 9 10 9 16 1 21 -6 4 -9 13 -6 21 3 8 4 14 3 14 -1 0 -17 -4
-35 -9 -25 -8 -32 -7 -32 5 0 8 -2 14 -5 14 -15 0 -66 -29 -102 -57 -23 -18
-49 -33 -57 -33 -9 0 -20 -10 -25 -23 -5 -13 -25 -35 -45 -51 -39 -29 -46 -46
-20 -46 9 0 14 -6 11 -13 -3 -8 -2 -20 3 -27 6 -9 13 -7 29 9 22 22 29 47 9
35 -6 -4 -8 -3 -5 3 7 12 57 15 57 4 0 -4 -6 -13 -12 -19 -10 -10 -10 -15 0
-21 11 -6 8 -13 -10 -27 -12 -11 -23 -28 -24 -39 0 -11 -4 -31 -8 -45 -6 -23
-6 -23 7 -7 8 9 20 17 27 17 9 0 7 -6 -5 -20 -18 -19 -17 -20 1 -20 11 0 25 5
31 11 8 8 13 8 18 0 3 -6 -7 -19 -24 -29 -17 -9 -31 -20 -31 -24 0 -9 39 2 46
13 9 15 24 10 24 -7 0 -9 -10 -24 -22 -35 l-23 -18 40 -1 c29 0 44 -5 53 -20
7 -12 24 -25 39 -31 20 -7 23 -13 15 -21 -20 -20 -13 -28 21 -22 l32 5 -25
-21 -24 -22 37 7 c42 8 49 -1 12 -15 -37 -14 -30 -30 9 -25 19 3 38 0 41 -5 3
-6 18 -10 33 -10 15 0 23 -4 17 -8 -16 -11 -35 -51 -27 -55 14 -8 67 -20 80
-18 7 1 12 -9 12 -27 0 -15 7 -37 15 -48 19 -25 19 -38 1 -31 -10 4 -13 1 -9
-9 3 -9 12 -13 21 -9 9 3 13 3 9 -1 -4 -4 -2 -13 4 -21 6 -7 9 -23 6 -34 -4
-16 1 -28 19 -41 13 -11 24 -30 24 -44 0 -16 6 -24 18 -24 9 -1 30 -11 45 -24
26 -21 27 -24 10 -31 -10 -4 -24 -9 -30 -9 -13 -1 -14 -11 -5 -34 2 -7 0 -18
-7 -25 -13 -13 -15 -47 -3 -47 5 0 8 -10 8 -22 -1 -18 4 -23 22 -22 12 0 22
-3 22 -8 0 -4 -6 -8 -12 -8 -7 -1 -2 -10 12 -21 25 -21 30 -49 31 -178 0 -19
6 -46 14 -60 7 -14 12 -49 12 -78 0 -29 5 -65 12 -80 7 -15 19 -41 25 -58 7
-16 22 -51 35 -76 15 -31 20 -54 16 -72 -6 -22 -1 -31 24 -53 17 -14 31 -30
31 -34 0 -9 55 -135 68 -157 21 -35 84 -124 97 -136 8 -8 16 -26 19 -41 2 -14
15 -36 28 -50 26 -28 154 -96 181 -96 9 0 17 -4 17 -10 0 -5 8 -10 18 -10 9 0
49 -15 87 -34 39 -18 82 -36 97 -40 15 -3 29 -14 33 -25 7 -22 -4 -53 -15 -46
-11 7 -84 -31 -101 -51 -10 -13 -10 -17 1 -24 7 -4 10 -15 6 -25 -4 -12 0 -18
14 -22 25 -7 25 -9 0 -40 -11 -14 -20 -34 -20 -44 0 -16 4 -15 44 7 24 14 50
31 56 39 7 8 17 15 22 15 6 0 5 -7 -2 -15 -10 -12 -10 -15 3 -15 9 0 19 5 22
10 4 6 10 8 15 5 5 -3 20 1 33 10 13 8 34 15 48 15 42 0 69 -4 69 -10 0 -13
-25 -30 -44 -30 -21 1 -21 1 -2 15 19 15 19 15 -2 15 -12 0 -41 -12 -63 -26
-22 -14 -48 -24 -57 -22 -19 4 -52 -20 -52 -37 0 -6 4 -5 8 2 4 6 20 15 36 19
31 7 30 -1 -1 -37 -12 -15 -11 -16 13 -11 19 3 25 1 20 -7 -4 -6 -1 -11 9 -11
11 0 14 6 9 25 -5 20 0 31 19 49 22 20 28 22 38 10 6 -8 18 -14 25 -14 8 0 14
-4 14 -10 0 -5 -7 -10 -15 -10 -8 0 -15 5 -15 10 0 15 -26 12 -40 -5 -9 -10
-9 -15 -1 -15 6 0 11 5 11 11 0 5 4 8 9 5 5 -3 7 -14 5 -24 -4 -11 5 -23 26
-36 31 -18 48 -17 35 3 -3 6 -15 11 -26 11 -10 0 -19 7 -19 15 0 9 8 14 23 12
18 -2 22 2 19 21 -1 17 2 23 14 20 18 -3 29 -68 12 -68 -6 0 -5 -6 2 -15 12
-14 -9 -40 -71 -87 -18 -14 -20 -21 -11 -30 8 -8 12 -9 12 -1 0 14 28 43 41
43 5 0 9 -7 9 -16 0 -8 4 -13 9 -9 6 3 6 -7 0 -27 -11 -41 -11 -41 2 -32 8 4
9 0 4 -15 -8 -26 0 -27 32 -1 14 11 32 20 39 20 8 0 14 9 14 19 0 19 17 38 26
28 3 -2 -1 -25 -8 -50 -6 -26 -9 -50 -4 -54 9 -10 27 18 23 37 -4 19 37 58 69
66 35 9 43 -8 40 -72 -3 -51 -3 -52 23 -51 23 2 26 -1 25 -30 -2 -34 12 -45
22 -18 9 22 21 18 28 -8 6 -22 7 -21 36 11 24 26 35 31 55 26 27 -7 33 -28 11
-41 -8 -4 -20 -24 -28 -43 -12 -29 -13 -38 -2 -48 10 -9 14 -7 17 11 3 12 5 7
4 -12 -1 -22 3 -36 12 -39 10 -3 13 2 9 21 -3 14 -1 32 3 39 6 9 9 4 9 -14 0
-34 12 -36 25 -6 6 12 16 24 23 26 10 3 12 -5 7 -32 -6 -31 -5 -35 9 -30 9 3
16 2 16 -4 0 -14 -26 -33 -33 -25 -4 3 -7 -1 -7 -11 0 -9 4 -14 10 -11 5 3 12
-6 16 -21 l7 -27 14 27 c14 28 42 36 39 12 -1 -16 0 -16 37 -16 28 0 59 46 39
59 -6 3 -9 16 -6 28 6 21 6 21 25 2 18 -18 18 -22 5 -53 -8 -19 -12 -37 -9
-40 3 -3 -7 -10 -22 -16 -22 -8 -26 -13 -16 -23 9 -9 14 -9 20 2 7 11 9 11 13
0 4 -11 10 -10 27 5 18 16 21 17 21 3 0 -26 18 -29 40 -7 13 13 19 28 15 37
-8 23 27 103 45 103 13 0 13 -1 0 -10 -13 -8 -13 -13 -2 -30 13 -22 8 -45 -9
-35 -17 11 -9 -15 11 -35 11 -11 20 -27 20 -35 0 -11 7 -14 25 -9 22 5 25 3
25 -20 0 -28 6 -31 30 -16 19 12 42 -8 35 -30 -4 -12 4 -25 21 -39 15 -12 23
-21 19 -21 -4 0 -2 -7 5 -15 15 -18 24 -12 28 18 11 96 15 117 23 117 5 0 9
-11 9 -24 0 -13 8 -30 17 -37 15 -13 16 -11 10 21 -4 19 -16 41 -27 49 -25 17
-25 27 0 34 16 4 20 14 20 46 0 53 20 54 43 1 21 -49 21 -61 2 -54 -12 5 -15
-5 -15 -60 0 -77 14 -86 28 -18 l10 47 1 -52 c1 -50 14 -77 24 -51 3 7 6 3 6
-9 1 -32 17 -36 35 -8 17 25 20 55 10 93 -9 30 -24 28 -24 -4 0 -41 -25 -23
-26 19 -1 32 1 35 14 25 13 -11 14 -10 9 7 -4 11 -3 26 2 33 12 19 28 -4 40
-60 15 -64 29 -98 41 -98 6 0 8 12 5 28 -4 21 -3 23 3 7 6 -13 19 -20 38 -21
16 0 37 -4 47 -8 14 -7 17 -3 17 17 0 14 5 29 10 32 6 4 10 -8 10 -28 0 -19 7
-40 15 -47 10 -9 15 -9 15 -1 0 6 7 11 15 11 12 0 15 14 14 73 0 39 -4 94 -8
122 -10 56 -5 76 13 69 8 -3 16 -29 19 -63 2 -32 13 -71 23 -86 19 -29 33 -19
16 11 -6 10 -6 31 0 54 9 33 13 38 36 36 14 -2 28 -9 30 -16 3 -8 0 -10 -8 -5
-10 6 -12 2 -7 -16 4 -13 7 -27 7 -30 0 -4 6 -9 14 -12 10 -4 12 0 8 15 -3 14
-1 19 6 14 7 -4 12 -1 12 8 0 29 17 16 61 -46 34 -49 45 -59 47 -43 3 11 -6
28 -21 41 -29 25 -47 74 -27 74 7 0 10 -7 6 -15 -3 -9 0 -15 10 -15 11 0 13 6
9 20 -6 20 9 28 20 10 11 -18 25 -10 22 12 -1 16 3 23 18 23 13 0 19 6 18 18
-1 17 1 17 21 -2 12 -12 25 -21 29 -21 11 0 8 68 -3 75 -16 10 -12 25 5 19 8
-4 15 -12 15 -20 0 -17 16 -19 26 -3 4 7 13 -2 22 -21 14 -29 17 -30 28 -16 9
13 13 14 17 4 4 -10 6 -10 6 0 1 6 13 12 29 13 15 0 22 3 16 5 -7 3 -10 14 -7
25 5 18 6 18 18 3 16 -22 45 -11 45 16 0 24 13 26 35 4 9 -9 19 -14 22 -11 3
4 14 2 24 -4 24 -12 26 6 2 19 -9 5 -17 20 -19 34 -2 19 2 24 18 24 16 -1 21
6 22 27 1 16 -2 31 -6 33 -5 3 -6 10 -2 15 3 5 0 17 -8 26 -12 15 -10 16 12
10 14 -4 28 -7 32 -7 3 0 4 -8 1 -18 -2 -10 3 -24 11 -31 24 -20 19 -34 -9
-27 -14 4 -25 2 -25 -4 0 -5 7 -10 15 -10 8 0 27 -16 42 -35 15 -19 32 -35 38
-35 5 0 4 5 -3 12 -18 18 -15 28 8 28 11 0 20 5 20 10 0 6 -4 10 -10 10 -5 0
-7 6 -4 14 3 8 12 12 20 9 9 -3 14 2 14 15 0 24 -11 33 -46 37 -36 4 -42 14
-16 33 22 17 22 18 3 34 -16 13 -18 23 -11 51 4 20 5 48 2 64 l-5 28 24 -21
c36 -32 49 -21 44 34 l-5 47 19 -42 c15 -32 31 -47 68 -65 26 -12 51 -24 54
-26 4 -1 9 6 12 18 3 11 1 20 -5 20 -5 0 -3 9 6 21 10 15 13 37 9 73 -4 49 -3
53 41 103 25 28 46 60 46 71 0 11 8 23 18 25 9 3 2 5 -15 6 -22 1 -33 6 -33
16 0 8 -8 15 -17 15 -17 1 -17 1 0 14 21 16 22 30 1 22 -10 -4 -21 4 -32 24
-9 16 -22 30 -27 30 -6 0 -26 14 -45 31 -43 37 -24 29 51 -23 54 -38 59 -39
122 -35 73 5 85 1 59 -20 -15 -13 -15 -14 8 -8 14 4 52 8 85 9 66 2 100 16
110 45 3 11 19 24 35 29 17 6 40 28 56 54 15 24 42 61 61 83 37 43 80 129 108
215 10 30 25 66 33 78 9 13 19 42 22 65 7 41 34 125 51 159 5 10 9 23 9 30 0
7 7 26 15 41 8 15 17 45 21 65 15 91 50 199 71 222 13 14 23 32 23 40 0 8 12
28 26 43 27 30 26 50 -1 27 -14 -12 -15 -11 -7 11 5 13 18 57 28 98 21 92 50
140 83 141 20 0 22 4 17 26 -4 14 -2 32 4 39 6 7 9 19 8 26 -2 8 2 13 9 12 17
-4 5 24 -14 31 -12 5 -9 12 13 35 15 17 31 28 35 26 4 -3 12 9 19 25 7 17 20
30 29 30 9 1 27 17 40 38 21 33 22 40 11 72 -7 19 -18 40 -25 45 -7 6 -22 28
-35 50 l-23 40 48 -49 c26 -28 51 -60 56 -73 10 -28 33 -31 24 -4 -5 16 -2 18
15 14 21 -6 29 20 10 32 -19 12 0 26 20 15 25 -13 30 -13 30 5 0 9 9 15 24 15
38 0 50 22 35 67 -7 21 -19 45 -26 54 -16 20 -17 33 -1 23 7 -5 25 -7 41 -6
15 1 36 -2 47 -8 15 -8 21 -6 30 10 6 11 17 20 25 20 23 0 28 19 11 45 -16 24
-15 25 4 25 28 0 34 20 16 55 -16 31 -7 55 21 55 10 0 13 6 9 15 -4 11 3 19
19 25 20 8 25 16 25 45 0 23 -5 35 -13 35 -8 0 -22 9 -32 20 -12 14 -21 17
-25 9 -9 -13 -50 9 -50 27 0 7 -12 14 -27 17 -96 21 -95 21 -91 1 2 -14 19
-23 61 -34 32 -8 57 -20 57 -27 0 -17 -15 -16 -30 2 -7 8 -16 12 -21 9 -18
-10 -53 -13 -63 -5 -6 5 -27 12 -46 16 -33 7 -34 6 -19 -10 9 -9 35 -19 58
-22 53 -7 43 -18 -17 -18 -39 0 -47 -3 -44 -17 2 -12 -4 -18 -15 -19 -24 -1
34 -28 62 -29 33 -1 52 -17 38 -31 -10 -10 -22 -9 -55 1 -89 28 -128 21 -128
-21 0 -11 -5 -19 -11 -19 -8 0 -8 -4 -2 -12 6 -7 13 -23 15 -35 5 -19 0 -23
-44 -33 -53 -13 -68 -31 -47 -56 10 -13 9 -16 -9 -21 -23 -6 -28 -22 -13 -38
5 -6 12 -21 16 -35 7 -24 6 -23 -28 9 -19 18 -40 30 -46 27 -6 -4 -15 -24 -21
-46 -6 -24 -18 -41 -30 -45 -11 -4 -20 -11 -20 -16 0 -5 -6 -9 -14 -9 -19 0
-61 -68 -62 -100 0 -15 -6 -24 -13 -22 -7 1 -19 -4 -25 -13 -8 -11 -21 -14
-41 -11 -47 9 -90 -3 -100 -27 -6 -12 -16 -23 -22 -23 -7 -1 -16 -3 -20 -4 -5
-1 -18 -1 -31 0 -12 1 -25 -6 -28 -14 -3 -9 -14 -16 -23 -16 -10 0 -26 -6 -36
-14 -13 -9 -36 -13 -67 -10 -34 3 -51 0 -62 -12 -13 -13 -19 -14 -32 -4 -12
11 -13 10 -8 -4 9 -22 -9 -20 -31 4 -19 21 -45 27 -45 11 0 -21 -50 16 -55 41
-9 39 -22 43 -28 8 -8 -39 -37 -30 -37 12 0 26 -3 29 -23 24 -22 -5 -23 -3
-25 70 -1 45 2 73 7 69 16 -10 22 12 10 39 -12 26 -29 35 -29 16 0 -15 -26
-12 -40 5 -7 8 -21 15 -31 15 -11 0 -19 7 -19 15 0 20 -17 19 -29 -2 -8 -16
-11 -14 -22 11 -12 24 -11 30 4 41 9 7 17 22 17 34 0 11 4 21 9 21 5 0 12 8
15 18 4 14 5 13 4 -3 -2 -30 13 -76 22 -70 5 3 16 -2 24 -11 17 -17 21 -4 7
24 -29 56 -35 78 -34 113 2 40 -11 53 -21 22 -4 -15 -5 -14 -4 2 1 23 -7 48
-28 88 -15 27 -12 47 7 47 5 0 9 -8 9 -17 0 -24 23 -87 35 -95 5 -4 18 -5 29
-2 12 4 16 2 11 -6 -4 -6 1 -20 11 -31 21 -24 32 -11 26 31 -3 19 -16 38 -33
51 -16 11 -29 29 -29 40 0 21 16 26 23 7 4 -10 6 -10 6 0 1 7 -11 24 -26 38
-15 14 -28 32 -28 40 0 7 -4 15 -10 15 -5 1 -15 9 -22 18 -10 13 -9 18 3 28 9
6 11 14 5 17 -16 10 -41 67 -47 107 -4 21 -13 40 -20 43 -8 3 -14 14 -14 24 0
10 -5 23 -12 30 -9 9 -9 12 -1 12 7 0 14 -9 18 -20 6 -20 82 -90 97 -90 5 0 4
9 -2 19 -5 11 -10 28 -10 38 0 10 -7 31 -15 46 -14 27 -13 28 5 22 16 -5 20
-2 20 19 0 14 5 28 10 31 6 3 10 1 10 -4 0 -6 5 -11 12 -11 6 0 3 9 -7 20 -10
11 -30 20 -45 20 -16 0 -30 7 -34 15 -4 12 0 14 19 9 20 -5 24 -3 19 10 -4 11
-1 16 11 16 9 0 19 -9 22 -20 3 -11 11 -20 18 -20 18 0 45 -34 45 -58 0 -13 6
-22 15 -22 8 0 15 7 15 15 0 8 -4 15 -8 15 -9 0 -42 70 -42 89 0 7 -4 9 -10 6
-6 -3 -7 1 -4 9 7 17 34 22 34 6 0 -5 9 -14 20 -20 17 -9 19 -7 16 27 -2 28
-9 41 -25 48 -13 6 -20 17 -18 26 3 9 0 24 -5 33 -10 19 -4 20 23 6 30 -16 23
6 -9 29 -15 11 -37 38 -48 60 -10 23 -25 41 -32 41 -16 0 -11 22 5 27 6 2 14
-9 18 -25 4 -18 16 -34 33 -41 22 -10 25 -10 15 0 -14 14 -18 59 -5 59 4 0 7
29 5 65 -2 53 1 65 13 65 9 0 18 8 21 19 3 13 11 17 24 14 25 -7 25 13 0 29
-16 10 -19 20 -14 59 4 34 1 53 -10 70 -15 21 -15 23 1 35 9 8 30 14 46 14 21
0 27 4 23 15 -4 8 -2 17 3 20 15 9 12 25 -4 25 -7 0 -16 15 -20 33 -5 22 -9
28 -15 19 -10 -16 -42 -13 -48 5 -2 6 6 13 18 15 36 5 33 25 -5 38 -40 13 -50
36 -12 26 13 -3 31 -9 40 -12 12 -5 15 -2 10 10 -3 9 -15 16 -26 16 -10 0 -16
5 -13 10 3 6 15 10 25 10 19 0 19 1 -2 36 -12 20 -27 38 -35 41 -7 3 -13 11
-13 19 0 10 6 11 26 4 31 -12 55 -2 29 13 -12 6 -14 12 -6 16 15 10 3 41 -15
41 -9 0 -11 -6 -7 -17 6 -15 4 -16 -9 -5 -13 10 -17 10 -22 -3 -6 -16 -36 -21
-36 -5 0 5 7 13 15 18 19 10 6 56 -19 65 -25 10 -19 27 9 27 17 0 36 -12 56
-35 27 -30 33 -33 45 -20 17 16 10 58 -12 76 -19 16 -18 36 4 49 16 9 15 11
-5 29 -25 21 -29 31 -13 31 17 0 60 -43 60 -61 0 -9 6 -22 14 -28 11 -9 15 -5
20 20 3 18 1 38 -5 45 -9 11 -7 14 9 14 17 0 20 6 18 35 -2 19 -8 41 -14 48
-9 10 -8 17 1 26 9 10 7 16 -11 31 -14 11 -18 20 -10 22 8 3 7 11 -5 28 -9 14
-17 28 -17 32 0 10 45 0 79 -18 31 -16 39 -10 18 14 -10 10 -17 26 -17 36 0 9
-5 27 -11 38 -10 18 -9 20 5 15 19 -8 22 13 4 31 -10 10 -10 17 0 32 10 16 9
21 -8 30 -27 14 -26 30 1 23 19 -5 20 -3 12 12 -13 23 -5 55 15 55 13 0 13 2
-1 18 -10 10 -17 31 -17 46 0 23 3 26 20 21 25 -8 27 16 4 36 -10 8 -14 22
-10 41 3 15 1 30 -5 34 -6 3 -8 19 -5 35 3 15 1 31 -5 35 -6 3 -8 12 -5 20 3
7 1 16 -4 19 -6 4 -10 19 -10 36 0 16 -5 29 -11 29 -7 0 -9 10 -7 25 4 18 0
26 -13 30 -23 8 -25 38 -4 55 22 18 19 30 -7 30 l-23 0 25 19 24 19 -24 21
c-14 11 -29 20 -33 21 -5 0 -5 6 0 12 20 33 -12 93 -43 81 -7 -2 -11 7 -11 23
0 17 -10 36 -25 48 -16 14 -25 33 -27 56 -2 46 -37 118 -61 125 -10 3 -23 19
-28 35 -6 16 -22 36 -36 45 -14 10 -24 21 -21 25 8 13 -92 110 -114 110 -12 0
-24 7 -27 15 -4 8 -12 15 -20 15 -7 0 -18 8 -23 18 -6 9 -11 13 -11 9 0 -5
-16 0 -36 12 -19 12 -46 21 -60 21 -16 0 -24 6 -24 18 0 9 -16 25 -35 34 -20
10 -35 13 -35 7 0 -6 -5 -7 -10 -4 -6 4 -8 11 -5 16 4 5 -4 9 -15 9 -12 0 -35
11 -52 25 -16 14 -39 25 -51 25 -21 -1 -22 -1 -3 -15 11 -8 17 -18 13 -22 -4
-3 -15 1 -24 9 -10 8 -26 18 -35 21 -10 4 -18 10 -18 15 0 5 -13 15 -29 22
-17 6 -32 17 -34 23 -2 7 -3 4 -2 -5 4 -23 -13 -34 -28 -19 -14 14 -30 15 -22
1 3 -5 0 -10 -9 -10 -8 0 -17 6 -19 13 -4 9 -7 9 -15 -1 -10 -14 -62 0 -62 17
0 13 -34 23 -54 15 -15 -6 -15 -7 1 -19 17 -13 17 -14 1 -20 -9 -4 -26 -1 -38
5 -12 6 -23 10 -24 8 -2 -2 -8 -12 -14 -23 -11 -19 -11 -19 -12 -1 0 15 -5 17
-27 12 -16 -4 -37 -7 -48 -7 -11 0 -33 1 -50 1 -16 0 -40 6 -53 12 -18 10 -25
9 -31 -1 -7 -11 -14 -10 -35 4 -15 10 -26 13 -26 6 0 -6 5 -11 12 -11 8 0 8
-3 3 -9 -14 -13 -65 -1 -65 15 0 8 -7 15 -15 15 -20 2 -50 12 -76 25 -3 2 -15
-3 -26 -11z m425 -454 c17 -10 25 -111 9 -111 -18 1 -49 48 -36 55 6 4 7 19 4
36 -7 30 0 35 23 20z m192 -21 c0 -5 -5 -10 -11 -10 -5 0 -7 5 -4 10 3 6 8 10
11 10 2 0 4 -4 4 -10z m-112 -21 c7 -12 11 -24 7 -27 -3 -4 -10 0 -15 8 -8 13
-10 12 -10 -2 0 -9 5 -20 10 -23 6 -3 10 -10 10 -16 0 -5 -9 -4 -20 3 -20 13
-25 34 -14 62 8 21 17 20 32 -5z m49 -41 c-3 -7 -5 -2 -5 12 0 14 2 19 5 13 2
-7 2 -19 0 -25z m-1797 -1128 c-6 -11 -15 -20 -20 -20 -16 0 -11 18 8 29 24
14 24 14 12 -9z m2425 -80 c3 -5 -1 -10 -9 -10 -9 0 -16 5 -16 10 0 6 4 10 9
10 6 0 13 -4 16 -10z m-2505 -30 c0 -5 -5 -10 -11 -10 -5 0 -7 5 -4 10 3 6 8
10 11 10 2 0 4 -4 4 -10z m-57 -67 c-7 -2 -21 -2 -30 0 -10 3 -4 5 12 5 17 0
24 -2 18 -5z m2972 -24 c12 -19 -3 -22 -27 -5 l-22 16 21 0 c12 0 25 -5 28
-11z m-2835 -3 c0 -2 -7 -9 -15 -16 -13 -11 -14 -10 -9 4 5 14 24 23 24 12z
m2794 -102 c9 -3 16 -10 16 -15 0 -14 -26 -10 -40 6 -13 16 -3 20 24 9z
m-2834 -14 c8 -5 11 -12 8 -15 -4 -4 -17 0 -30 9 -24 17 -5 23 22 6z m95 -20
c-3 -5 -11 -10 -16 -10 -6 0 -7 5 -4 10 3 6 11 10 16 10 6 0 7 -4 4 -10z
m-135 -40 c0 -19 -36 -47 -48 -36 -5 5 36 56 45 56 2 0 3 -9 3 -20z m30 -34
c0 -3 -4 -8 -10 -11 -5 -3 -10 -1 -10 4 0 6 5 11 10 11 6 0 10 -2 10 -4z
m-100 -56 c0 -5 -5 -10 -11 -10 -5 0 -7 5 -4 10 3 6 8 10 11 10 2 0 4 -4 4
-10z m2805 -45 c16 -13 27 -26 25 -29 -3 -2 -21 9 -40 25 -19 16 -30 29 -25
29 6 -1 23 -12 40 -25z m-2650 -25 c-3 -5 -11 -10 -16 -10 -6 0 -7 5 -4 10 3
6 11 10 16 10 6 0 7 -4 4 -10z m2813 -72 c-6 -18 -28 -21 -28 -4 0 9 7 16 16
16 9 0 14 -5 12 -12z m-143 -68 c3 -5 1 -10 -4 -10 -6 0 -11 5 -11 10 0 6 2
10 4 10 3 0 8 -4 11 -10z m56 -10 c20 -11 27 -44 7 -38 -13 5 -44 48 -34 48 4
0 16 -5 27 -10z m69 -19 c0 -6 -4 -13 -10 -16 -5 -3 -10 1 -10 9 0 9 5 16 10
16 6 0 10 -4 10 -9z m-2852 -67 c-3 -14 -5 -12 -10 9 -3 19 -2 25 4 19 6 -6 8
-18 6 -28z m-41 -4 c1 -14 -4 -20 -18 -20 -17 0 -18 3 -9 20 6 11 14 20 18 20
4 0 8 -9 9 -20z m2843 -11 c0 -6 -4 -7 -10 -4 -5 3 -10 11 -10 16 0 6 5 7 10
4 6 -3 10 -11 10 -16z m105 -9 c8 0 15 -7 15 -15 0 -11 -11 -15 -41 -15 -32 0
-40 3 -35 15 3 8 1 15 -4 15 -6 0 -10 7 -10 15 0 14 3 14 30 0 16 -8 36 -15
45 -15z m-131 -16 c4 -10 1 -14 -6 -12 -15 5 -23 28 -10 28 5 0 13 -7 16 -16z
m-2754 -4 c0 -5 -5 -10 -11 -10 -5 0 -7 5 -4 10 3 6 8 10 11 10 2 0 4 -4 4
-10z m2697 -96 c-3 -3 -12 -4 -19 -1 -8 3 -5 6 6 6 11 1 17 -2 13 -5z m-2507
-84 c0 -5 -7 -10 -16 -10 -8 0 -12 5 -9 10 3 6 10 10 16 10 5 0 9 -4 9 -10z
m-30 -34 c0 -7 -14 -19 -31 -26 -26 -11 -32 -11 -39 0 -10 16 -4 30 11 30 6 0
7 -4 4 -10 -9 -15 8 -12 31 5 24 18 24 18 24 1z m220 -30 c0 -3 -4 -8 -10 -11
-5 -3 -10 -1 -10 4 0 6 5 11 10 11 6 0 10 -2 10 -4z m2380 -102 c0 -8 -4 -12
-10 -9 -5 3 -10 10 -10 16 0 5 5 9 10 9 6 0 10 -7 10 -16z m-2512 -24 c-7 -11
-16 -20 -20 -20 -13 0 -9 28 5 33 23 10 27 7 15 -13z m2456 -26 c3 -8 2 -12
-4 -9 -6 3 -10 10 -10 16 0 14 7 11 14 -7z m36 -54 c0 -5 -5 -10 -11 -10 -5 0
-7 5 -4 10 3 6 8 10 11 10 2 0 4 -4 4 -10z m-2610 -10 c0 -5 -5 -10 -11 -10
-5 0 -7 5 -4 10 3 6 8 10 11 10 2 0 4 -4 4 -10z m145 -80 c-3 -5 -12 -10 -18
-10 -7 0 -6 4 3 10 19 12 23 12 15 0z m-102 -7 c8 -7 -11 -33 -24 -33 -5 0 -9
9 -9 20 0 19 20 27 33 13z m5 -81 c2 -7 -5 -12 -17 -12 -14 0 -19 5 -14 15 6
17 25 15 31 -3z m96 -23 c-2 -4 -13 -9 -24 -12 -23 -6 -28 11 -5 19 8 4 15 14
16 23 0 12 2 11 8 -4 5 -11 7 -23 5 -26z m86 -119 c0 -5 -4 -10 -10 -10 -5 0
-10 5 -10 10 0 6 5 10 10 10 6 0 10 -4 10 -10z m2298 -26 c-10 -10 -28 6 -28
24 0 15 1 15 17 -1 9 -9 14 -19 11 -23z m-2503 -6 c-19 -12 -19 -12 5 -18 18
-4 21 -8 10 -12 -8 -3 -26 -1 -39 4 -23 8 -24 9 -5 23 10 8 26 14 34 14 10 0
9 -3 -5 -11z m155 -38 c0 -5 -7 -10 -16 -10 -8 0 -12 5 -9 10 3 6 10 10 16 10
5 0 9 -4 9 -10z m-226 -56 c4 -10 1 -14 -6 -12 -15 5 -23 28 -10 28 5 0 13 -7
16 -16z m46 -4 c0 -5 -5 -10 -11 -10 -5 0 -7 5 -4 10 3 6 8 10 11 10 2 0 4 -4
4 -10z m140 -26 c0 -8 -5 -12 -10 -9 -6 4 -8 11 -5 16 9 14 15 11 15 -7z m50
6 c0 -5 -2 -10 -4 -10 -3 0 -8 5 -11 10 -3 6 -1 10 4 10 6 0 11 -4 11 -10z
m-193 -42 c-3 -8 -6 -5 -6 6 -1 11 2 17 5 13 3 -3 4 -12 1 -19z m223 7 c0 -8
-4 -15 -10 -15 -5 0 -10 7 -10 15 0 8 5 15 10 15 6 0 10 -7 10 -15z m2300 5
c0 -5 -2 -10 -4 -10 -3 0 -8 5 -11 10 -3 6 -1 10 4 10 6 0 11 -4 11 -10z
m-150 -29 c0 -6 -4 -13 -10 -16 -5 -3 -10 1 -10 9 0 9 5 16 10 16 6 0 10 -4
10 -9z m-2200 -21 c0 -5 -5 -10 -11 -10 -5 0 -7 5 -4 10 3 6 8 10 11 10 2 0 4
-4 4 -10z m-164 -16 c-24 -17 -34 -18 -50 -1 -11 11 -6 13 28 14 38 2 40 1 22
-13z m2348 -15 c-3 -5 -10 -7 -15 -3 -5 3 -7 10 -3 15 3 5 10 7 15 3 5 -3 7
-10 3 -15z m191 -4 c0 -10 -6 -20 -12 -22 -8 -3 -13 5 -13 22 0 17 5 25 13 23
6 -3 12 -13 12 -23z m-2225 5 c0 -5 -5 -10 -11 -10 -5 0 -7 5 -4 10 3 6 8 10
11 10 2 0 4 -4 4 -10z m-1675 -10 c3 -5 1 -10 -4 -10 -6 0 -11 5 -11 10 0 6 2
10 4 10 3 0 8 -4 11 -10z m1393 -11 c10 -14 9 -17 -7 -22 -10 -2 -25 -1 -32 4
-11 7 -10 11 6 23 11 8 20 14 20 13 1 -1 6 -9 13 -18z m99 -4 c-6 -17 -57 -18
-57 -2 0 9 10 14 30 13 16 -1 28 -5 27 -11z m2264 2 c-1 -12 -15 -9 -19 4 -3
6 1 10 8 8 6 -3 11 -8 11 -12z m-2080 -94 c-10 -17 -10 -16 -11 3 0 23 13 41
18 25 2 -6 -1 -18 -7 -28z m2123 -13 c-6 -5 -24 21 -24 34 0 6 6 1 14 -10 8
-10 12 -21 10 -24z m156 5 c0 -25 -14 -34 -24 -16 -8 12 3 41 15 41 5 0 9 -11
9 -25z m1465 15 c3 -5 -1 -10 -9 -10 -9 0 -16 5 -16 10 0 6 4 10 9 10 6 0 13
-4 16 -10z m-1515 -21 c0 -5 -4 -9 -10 -9 -5 0 -10 7 -10 16 0 8 5 12 10 9 6
-3 10 -10 10 -16z m1467 15 c-3 -3 -12 -4 -19 -1 -8 3 -5 6 6 6 11 1 17 -2 13
-5z m-1540 -26 c-3 -8 -6 -5 -6 6 -1 11 2 17 5 13 3 -3 4 -12 1 -19z m-2446
-21 c-6 -8 -8 -17 -4 -20 3 -4 2 -7 -3 -7 -12 0 -34 21 -34 32 0 4 12 8 26 8
21 0 24 -3 15 -13z m46 -23 c-3 -3 -12 -4 -19 -1 -8 3 -5 6 6 6 11 1 17 -2 13
-5z m-167 -148 c0 -9 -30 -14 -35 -6 -4 6 3 10 14 10 12 0 21 -2 21 -4z m-800
-161 c6 -8 10 -20 8 -26 -2 -6 -12 0 -21 15 -18 27 -8 37 13 11z m-230 -35 c0
-5 -7 -10 -16 -10 -8 0 -12 5 -9 10 3 6 10 10 16 10 5 0 9 -4 9 -10z m272 -52
c-9 -9 -12 -7 -12 12 0 19 3 21 12 12 9 -9 9 -15 0 -24z m728 22 c0 -5 -7 -10
-16 -10 -8 0 -12 5 -9 10 3 6 10 10 16 10 5 0 9 -4 9 -10z m2780 -25 c0 -30
-3 -34 -22 -32 -29 5 -33 21 -11 46 26 28 33 25 33 -14z m-2825 15 c3 -5 1
-10 -4 -10 -6 0 -11 5 -11 10 0 6 2 10 4 10 3 0 8 -4 11 -10z m182 -36 c-3 -3
-12 -4 -19 -1 -8 3 -5 6 6 6 11 1 17 -2 13 -5z m2670 -51 c3 -7 -4 -11 -16
-10 -12 1 -21 7 -21 15 0 16 32 12 37 -5z m-2907 -23 c0 -5 -5 -10 -11 -10 -5
0 -7 5 -4 10 3 6 8 10 11 10 2 0 4 -4 4 -10z m-90 -49 c0 -12 -20 -25 -27 -18
-7 7 6 27 18 27 5 0 9 -4 9 -9z m2974 -81 c-2 -38 -1 -40 25 -35 14 3 20 2 14
-1 -17 -8 -16 -24 1 -24 9 0 13 -14 13 -46 0 -65 12 -72 67 -40 25 15 46 31
46 35 0 11 72 12 88 3 16 -11 28 -167 13 -176 -6 -4 -11 -19 -11 -33 0 -14
-11 -36 -24 -48 -17 -15 -23 -30 -19 -43 4 -17 1 -20 -14 -16 -14 4 -37 -11
-78 -50 -59 -58 -65 -60 -147 -71 l-47 -6 -25 -67 c-30 -80 -42 -133 -51 -227
-9 -90 -23 -111 -87 -130 -47 -14 -54 -14 -64 0 -6 8 -21 15 -33 15 -19 0 -21
4 -15 22 6 20 5 21 -9 10 -12 -10 -21 -11 -36 -3 -11 6 -22 11 -25 11 -10 0
-6 -39 4 -45 17 -11 11 -50 -10 -63 -16 -10 -18 -16 -9 -36 8 -16 17 -22 30
-19 13 4 19 0 19 -11 0 -18 31 -21 61 -6 16 9 21 7 30 -17 6 -15 7 -39 4 -53
-4 -14 -7 -41 -6 -62 0 -32 -3 -38 -31 -47 -38 -13 -43 -7 -53 56 -7 50 -25
49 -25 -2 0 -18 -9 -54 -20 -79 -11 -26 -20 -50 -21 -54 -4 -20 -12 -31 -25
-36 -8 -3 -12 -2 -9 3 3 6 -15 13 -41 17 -34 5 -48 3 -55 -7 -7 -11 -9 -10 -9
4 0 19 -13 22 -41 7 -11 -7 -19 -21 -19 -38 0 -40 -112 -141 -143 -129 -7 3
-32 -8 -55 -24 -24 -16 -47 -29 -52 -29 -6 0 -19 -5 -30 -12 -16 -10 -23 -9
-42 9 -20 18 -25 19 -36 7 -18 -19 -56 -18 -74 4 -20 23 -45 97 -51 151 -4 30
1 60 14 95 33 85 42 99 87 118 l43 19 57 -26 c31 -14 65 -36 74 -48 14 -18 19
-20 29 -9 7 6 21 12 30 12 19 0 34 67 18 86 -6 8 -5 14 7 18 27 11 61 7 74 -9
16 -19 26 -19 34 2 10 25 -16 45 -44 35 -29 -11 -90 1 -101 20 -7 10 -9 9 -9
-4 0 -9 -5 -20 -12 -24 -7 -4 -8 -3 -4 4 10 17 -43 27 -66 13 -15 -9 -26 -9
-50 4 -29 14 -33 14 -52 -2 -12 -10 -23 -21 -26 -25 -21 -28 -100 -28 -132 0
-14 12 -20 12 -33 2 -10 -8 -15 -9 -15 -1 0 6 -9 11 -20 11 -11 0 -20 -4 -20
-10 0 -19 -27 -10 -46 15 -21 28 -34 32 -34 10 0 -9 -11 -20 -25 -27 -13 -6
-22 -15 -19 -19 8 -13 -2 -11 -39 10 -18 10 -54 19 -81 19 -46 1 -94 18 -178
62 -20 11 -42 20 -48 20 -22 0 -115 48 -134 69 -13 14 -31 21 -56 21 -36 0
-84 27 -103 57 -13 21 -88 93 -96 93 -11 0 -61 73 -61 88 0 7 -7 12 -15 12 -7
0 -18 6 -22 13 -4 6 -21 19 -36 27 -16 8 -24 16 -19 18 6 2 2 12 -9 23 -10 10
-19 25 -19 33 0 7 -17 39 -37 70 l-38 57 -6 -68 c-6 -80 2 -117 34 -152 35
-38 67 -95 67 -120 0 -12 8 -38 19 -59 10 -20 24 -57 31 -82 25 -89 32 -100
67 -100 47 0 72 -12 139 -72 81 -70 159 -94 271 -84 74 7 76 7 115 -24 l39
-31 45 21 c49 24 80 23 154 -5 33 -12 65 -16 118 -12 72 4 74 3 84 -22 37 -97
-57 -241 -158 -241 -27 0 -62 33 -76 71 -7 21 -17 28 -50 32 -22 3 -57 3 -77
0 l-36 -6 19 22 c11 11 16 24 13 28 -4 3 -16 -6 -28 -20 -11 -15 -27 -27 -35
-27 -8 0 -19 -11 -24 -25 -12 -31 -30 -32 -37 -4 -6 21 -6 21 -24 -2 -16 -20
-20 -22 -29 -9 -5 8 -7 23 -4 32 7 23 -34 49 -64 41 -19 -5 -22 -10 -17 -35
11 -48 -7 -59 -92 -56 -40 2 -73 6 -73 9 0 3 -18 13 -40 22 -26 10 -43 25 -50
42 -8 22 -13 25 -25 15 -18 -15 -23 -13 -83 38 -55 47 -82 96 -63 115 6 6 11
17 11 24 0 11 -5 11 -20 3 -24 -13 -56 1 -65 29 -3 10 -24 31 -45 46 -23 16
-43 39 -46 54 -14 60 -38 127 -50 142 -8 8 -14 23 -14 33 0 18 -37 76 -57 89
-7 4 -13 19 -13 32 0 13 -5 25 -12 27 -7 3 -13 21 -15 42 l-2 37 35 -21 c28
-18 34 -19 34 -6 0 8 -5 18 -10 21 -6 4 -21 27 -34 53 -30 59 -59 86 -84 78
-20 -7 -31 9 -52 74 -31 96 -27 245 6 268 15 10 44 77 44 100 0 31 83 74 116
62 18 -7 23 -7 18 1 -7 12 27 9 91 -6 17 -4 42 -8 58 -8 15 0 27 -4 27 -9 0
-5 9 -6 21 -3 33 11 69 -2 62 -22 -5 -13 -3 -15 13 -9 21 8 24 9 42 7 7 0 11
-5 8 -10 -3 -5 16 -12 42 -16 26 -3 58 -13 71 -22 15 -10 34 -13 56 -9 23 5
38 2 48 -9 17 -17 92 -21 102 -5 12 19 23 10 29 -25 6 -31 11 -35 36 -35 17 0
30 -5 31 -12 0 -10 2 -10 6 0 7 17 33 15 54 -4 24 -21 57 -11 39 12 -10 11
-10 18 -2 26 8 8 13 7 18 -5 3 -9 16 -17 28 -17 20 -1 20 -2 4 -14 -27 -20
-21 -28 14 -20 28 6 31 5 20 -8 -10 -12 -8 -24 11 -59 12 -24 25 -45 30 -47 4
-2 7 -10 7 -17 0 -8 9 -20 19 -27 11 -8 19 -23 18 -33 -3 -30 42 -33 63 -5
l17 23 7 -27 c4 -15 4 -31 1 -36 -3 -5 1 -23 10 -39 8 -17 15 -41 15 -54 0
-13 9 -57 19 -98 11 -41 23 -98 27 -127 8 -61 24 -52 24 14 0 22 3 44 7 48 4
4 12 27 18 51 9 35 9 50 -3 77 -8 18 -15 67 -16 111 0 42 1 71 3 65 2 -7 10
-19 18 -26 13 -14 15 -23 15 -99 1 -34 5 -43 18 -43 13 0 16 -6 12 -25 -4 -25
11 -35 23 -15 3 6 16 10 28 10 20 1 20 2 5 11 -21 12 -24 31 -5 28 26 -3 39 2
34 14 -3 7 5 13 19 13 29 2 54 21 54 41 0 11 -7 14 -20 10 -15 -4 -21 -1 -19
11 1 9 0 19 -1 22 -8 22 -8 50 0 45 15 -9 32 4 23 18 -5 7 -8 21 -8 32 0 18
-8 20 -64 23 -78 4 -121 28 -114 65 4 22 6 23 46 12 50 -14 76 -23 100 -36 12
-7 17 -5 17 5 0 18 26 28 54 21 12 -3 15 -2 9 1 -7 3 -13 11 -13 17 0 6 -12
21 -27 33 l-28 22 20 19 c11 11 26 18 33 15 6 -2 12 3 12 11 0 8 -13 17 -32
21 -17 3 -29 9 -25 12 3 3 22 1 42 -6 27 -9 39 -9 50 0 8 6 19 9 25 5 6 -4 48
-9 93 -10 69 -3 79 -1 65 9 -10 7 -18 18 -18 25 0 15 27 14 33 -1 3 -10 7 -10
20 1 15 12 17 11 17 -2 0 -9 9 -21 20 -27 11 -6 20 -18 20 -26 0 -12 10 -14
43 -12 35 2 43 7 45 25 3 18 38 42 51 34 2 -2 7 3 12 10 8 13 47 21 102 20 15
0 36 8 46 18 15 15 29 18 67 13 27 -2 52 -9 56 -15 4 -7 17 -5 38 5 29 14 30
16 15 32 -15 15 -15 16 4 16 12 0 21 5 21 10 0 6 15 10 33 10 18 0 43 7 55 16
12 8 42 16 66 17 32 1 42 5 38 15 -5 15 14 32 39 32 11 0 15 -10 13 -40z m173
-22 c-3 -8 -6 -5 -6 6 -1 11 2 17 5 13 3 -3 4 -12 1 -19z m-27 -25 l-1 -38
-14 34 c-18 41 -18 41 0 41 11 0 15 -11 15 -37z m-40 13 c0 -3 -4 -8 -10 -11
-5 -3 -10 -1 -10 4 0 6 5 11 10 11 6 0 10 -2 10 -4z m-455 -46 c3 -5 1 -10 -4
-10 -6 0 -11 5 -11 10 0 6 2 10 4 10 3 0 8 -4 11 -10z m-1230 -30 c4 -6 1 -18
-6 -27 -11 -13 -10 -17 6 -29 18 -13 18 -14 -7 -14 -14 0 -31 7 -38 15 -9 10
-9 15 -1 15 6 0 11 11 11 25 0 25 23 35 35 15z m53 -47 c-5 -25 -28 -28 -28
-4 0 12 6 21 16 21 9 0 14 -7 12 -17z m842 -22 c0 -14 -18 -23 -30 -16 -6 4
-8 11 -5 16 8 12 35 12 35 0z m-894 -22 c10 -17 -13 -36 -27 -22 -12 12 -4 33
11 33 5 0 12 -5 16 -11z m484 1 c0 -5 -9 -10 -20 -10 -11 0 -20 5 -20 10 0 6
9 10 20 10 11 0 20 -4 20 -10z m-2465 -10 c3 -5 -1 -10 -10 -10 -9 0 -13 5
-10 10 3 6 8 10 10 10 2 0 7 -4 10 -10z m2109 4 c17 -7 22 -34 6 -34 -5 0 -14
8 -19 18 -10 16 -12 16 -25 0 -17 -23 -46 -23 -46 -2 0 14 2 15 17 3 9 -8 14
-9 10 -2 -6 10 4 17 35 22 3 0 13 -2 22 -5z m-1444 -35 c0 -5 -4 -9 -10 -9 -5
0 -10 7 -10 16 0 8 5 12 10 9 6 -3 10 -10 10 -16z m1454 -34 c-5 -20 -3 -24
10 -19 11 4 16 1 16 -12 0 -9 8 -26 17 -36 13 -14 14 -21 5 -30 -9 -9 -12 -9
-12 0 0 7 -7 12 -15 12 -8 0 -21 14 -28 32 -11 27 -18 32 -47 32 -47 1 -49 22
-3 34 60 16 64 15 57 -13z m196 1 c0 -3 -4 -8 -10 -11 -5 -3 -10 -1 -10 4 0 6
5 11 10 11 6 0 10 -2 10 -4z m25 -16 c3 -5 1 -10 -4 -10 -6 0 -11 5 -11 10 0
6 2 10 4 10 3 0 8 -4 11 -10z m-1759 -77 c5 -10 8 -31 4 -47 -5 -28 -6 -29
-22 -12 -24 24 -23 76 1 76 4 0 11 -8 17 -17z m1724 -38 c23 -12 30 -22 30
-45 0 -20 -5 -30 -15 -30 -9 0 -15 9 -15 24 0 19 -5 23 -25 21 -14 -2 -25 1
-25 6 0 5 5 9 11 9 6 0 9 7 5 15 -7 19 -2 19 34 0z m-1485 -25 c3 -5 -1 -10
-9 -10 -8 0 -18 5 -21 10 -3 6 1 10 9 10 8 0 18 -4 21 -10z m22 -86 c-3 -3
-12 -4 -19 -1 -8 3 -5 6 6 6 11 1 17 -2 13 -5z m1543 -74 c0 -5 -5 -10 -11
-10 -5 0 -7 5 -4 10 3 6 8 10 11 10 2 0 4 -4 4 -10z m1110 -426 c12 -12 12
-16 -2 -30 -15 -15 -18 -15 -47 2 -30 18 -38 34 -25 47 10 9 56 -3 74 -19z
m-2130 -464 c0 -5 -5 -10 -11 -10 -5 0 -7 5 -4 10 3 6 8 10 11 10 2 0 4 -4 4
-10z m-710 -40 c0 -5 -7 -10 -16 -10 -8 0 -12 5 -9 10 3 6 10 10 16 10 5 0 9
-4 9 -10z m230 -124 c0 -37 -1 -39 -15 -20 -8 10 -14 37 -14 59 0 37 1 39 14
21 8 -11 15 -38 15 -60z m1726 -84 c13 -8 34 -46 34 -61 0 -12 -57 -41 -81
-41 -50 0 -67 34 -24 50 27 10 34 30 10 30 -18 0 -20 16 -2 23 19 8 51 8 63
-1z m-106 -83 c0 -24 -23 -21 -28 4 -2 10 3 17 12 17 10 0 16 -9 16 -21z m876
-100 c12 -20 -2 -18 -45 8 -31 18 -39 28 -30 34 12 7 61 -20 75 -42z m-2266
-150 c0 -6 -4 -7 -10 -4 -5 3 -10 11 -10 16 0 6 5 7 10 4 6 -3 10 -11 10 -16z
m2107 -71 c-3 -8 -6 -5 -6 6 -1 11 2 17 5 13 3 -3 4 -12 1 -19z m-61 -68 c29
0 32 -16 4 -23 -12 -3 -29 3 -43 15 -18 16 -19 19 -4 14 10 -3 30 -6 43 -6z
m-50 -35 c13 -13 13 -15 1 -15 -8 0 -17 7 -21 15 -3 8 -3 15 0 15 3 0 12 -7
20 -15z m-251 -13 c-3 -3 -11 0 -18 7 -9 10 -8 11 6 5 10 -3 15 -9 12 -12z
m35 -2 c0 -5 -2 -10 -4 -10 -3 0 -8 5 -11 10 -3 6 -1 10 4 10 6 0 11 -4 11
-10z m80 -10 c15 -15 16 -20 6 -20 -25 0 -46 12 -46 26 0 20 17 17 40 -6z
m-249 -54 c12 -13 12 -36 -1 -36 -16 0 -29 36 -22 61 6 22 7 22 10 4 2 -11 8
-24 13 -29z m307 26 c6 -18 -15 -14 -22 4 -4 10 -1 14 6 12 6 -2 14 -10 16
-16z m72 -4 c0 -13 -23 -5 -28 10 -2 7 2 10 12 6 9 -3 16 -11 16 -16z m-1553
-20 c-3 -8 -6 -5 -6 6 -1 11 2 17 5 13 3 -3 4 -12 1 -19z m1588 12 c3 -5 -1
-10 -10 -10 -9 0 -13 5 -10 10 3 6 8 10 10 10 2 0 7 -4 10 -10z m-560 -70 c4
-16 11 -30 16 -30 5 0 9 -7 9 -15 0 -29 -28 -15 -35 18 -4 17 -14 42 -22 55
-14 22 -13 23 5 13 11 -6 23 -24 27 -41z m-95 9 c0 -6 -4 -7 -10 -4 -5 3 -10
11 -10 16 0 6 5 7 10 4 6 -3 10 -11 10 -16z m330 -9 c0 -5 -2 -10 -4 -10 -3 0
-8 5 -11 10 -3 6 -1 10 4 10 6 0 11 -4 11 -10z m-1150 -20 c0 -5 -5 -10 -11
-10 -5 0 -7 5 -4 10 3 6 8 10 11 10 2 0 4 -4 4 -10z m150 -21 c0 -16 -5 -20
-20 -16 -15 4 -20 0 -20 -14 0 -30 -17 -22 -22 11 -4 25 -1 30 21 33 14 2 29
5 34 6 4 0 7 -9 7 -20z m244 -40 c11 -22 13 -37 6 -48 -8 -14 -9 -13 -10 4 0
11 -7 29 -15 39 -14 19 -15 19 -15 -6 0 -33 -17 -78 -29 -78 -14 0 -23 32 -11
44 14 14 13 39 -2 30 -7 -4 -8 -3 -4 4 4 6 13 9 20 6 9 -3 17 3 21 15 9 29 21
26 39 -10z m349 -38 c-7 -9 -22 15 -28 44 -7 30 -7 30 12 -5 10 -19 18 -37 16
-39z m-643 1 c0 -4 -9 -8 -19 -8 -15 0 -17 3 -9 13 10 12 28 9 28 -5z m631
-89 c-9 -16 -10 -14 -11 12 0 21 3 26 11 18 8 -8 8 -16 0 -30z m53 12 c3 -8 1
-15 -4 -15 -6 0 -10 7 -10 15 0 8 2 15 4 15 2 0 6 -7 10 -15z"/>
<path d="M8025 4670 c-3 -6 1 -17 9 -26 15 -14 16 -14 16 5 0 23 -16 36 -25
21z"/>
<path d="M7784 4649 c-6 -11 28 -15 71 -9 l40 6 -53 5 c-30 2 -56 1 -58 -2z"/>
<path d="M6955 4630 c3 -5 8 -10 11 -10 2 0 4 5 4 10 0 6 -5 10 -11 10 -5 0
-7 -4 -4 -10z"/>
<path d="M7990 4630 c0 -5 7 -10 16 -10 8 0 12 5 9 10 -3 6 -10 10 -16 10 -5
0 -9 -4 -9 -10z"/>
<path d="M7785 4591 c-3 -5 -1 -12 4 -15 5 -3 11 1 15 9 6 16 -9 21 -19 6z"/>
<path d="M7060 4579 c0 -5 5 -7 10 -4 6 3 10 8 10 11 0 2 -4 4 -10 4 -5 0 -10
-5 -10 -11z"/>
<path d="M7130 4565 c7 -9 15 -13 17 -11 7 7 -7 26 -19 26 -6 0 -6 -6 2 -15z"/>
<path d="M7400 4271 c0 -6 5 -13 10 -16 6 -3 10 1 10 9 0 9 -4 16 -10 16 -5 0
-10 -4 -10 -9z"/>
<path d="M6885 3910 c-3 -5 -1 -10 4 -10 6 0 11 5 11 10 0 6 -2 10 -4 10 -3 0
-8 -4 -11 -10z"/>
<path d="M6715 3579 c-10 -15 1 -23 20 -15 9 3 13 10 10 16 -8 13 -22 13 -30
-1z"/>
<path d="M6770 3566 c0 -16 29 -36 51 -36 15 0 -6 27 -33 41 -14 7 -18 6 -18
-5z"/>
<path d="M8320 3521 c0 -11 26 -22 34 -14 3 3 3 10 0 14 -7 12 -34 11 -34 0z"/>
<path d="M7770 9190 c0 -5 7 -10 16 -10 8 0 12 5 9 10 -3 6 -10 10 -16 10 -5
0 -9 -4 -9 -10z"/>
<path d="M7722 9178 c7 -19 38 -22 38 -4 0 10 -9 16 -21 16 -12 0 -19 -5 -17
-12z"/>
<path d="M11601 9084 c0 -11 3 -14 6 -6 3 7 2 16 -1 19 -3 4 -6 -2 -5 -13z"/>
<path d="M11440 8940 c0 -11 4 -20 9 -20 13 0 32 26 24 33 -13 14 -33 6 -33
-13z"/>
<path d="M11400 8915 c0 -9 5 -15 11 -13 6 2 11 8 11 13 0 5 -5 11 -11 13 -6
2 -11 -4 -11 -13z"/>
<path d="M3007 8199 c-19 -59 -21 -79 -7 -79 6 0 10 7 10 16 0 9 9 28 19 43
12 17 18 36 14 49 -9 34 -19 26 -36 -29z"/>
<path d="M11600 8201 c0 -6 5 -13 10 -16 6 -3 10 1 10 9 0 9 -4 16 -10 16 -5
0 -10 -4 -10 -9z"/>
<path d="M11452 8136 c-6 -13 -14 -40 -17 -60 -6 -30 -4 -35 11 -33 16 1 19
11 22 59 1 32 1 58 -1 58 -2 0 -9 -11 -15 -24z"/>
<path d="M11605 8131 c-3 -5 -1 -12 5 -16 5 -3 10 1 10 9 0 18 -6 21 -15 7z"/>
<path d="M11400 8115 c0 -13 -4 -14 -20 -5 -16 9 -20 8 -20 -5 0 -9 9 -15 25
-15 18 0 25 5 25 20 0 11 -2 20 -5 20 -3 0 -5 -7 -5 -15z"/>
<path d="M11503 8026 c9 -7 17 -19 17 -27 0 -10 3 -10 11 -2 17 17 3 43 -23
43 -21 -1 -22 -2 -5 -14z"/>
<path d="M11498 7934 c5 -9 7 -25 5 -35 -3 -11 0 -19 6 -19 18 0 13 -15 -14
-44 -14 -15 -25 -34 -25 -42 0 -7 -3 -14 -7 -14 -5 0 -9 -23 -11 -52 -2 -28
-6 -56 -10 -62 -3 -6 -5 -19 -4 -29 2 -9 -2 -16 -8 -15 -30 7 -43 -120 -24
-221 5 -23 3 -32 -4 -27 -8 4 -9 -15 -5 -66 6 -71 6 -72 -12 -54 -19 18 -19
18 -28 -10 -4 -16 -9 -104 -10 -196 -1 -91 -5 -164 -9 -162 -3 2 -6 -38 -7
-89 -1 -191 -6 -342 -13 -353 -4 -6 -10 -64 -14 -130 -3 -65 -10 -124 -16
-131 -6 -7 -5 -14 2 -18 7 -4 7 -12 -1 -27 -6 -11 -9 -31 -6 -44 2 -13 -1 -28
-8 -34 -8 -6 -10 -28 -7 -60 3 -35 1 -50 -7 -50 -8 0 -10 -8 -6 -20 3 -10 -2
-34 -11 -51 -21 -42 -28 -122 -13 -150 9 -18 8 -24 -5 -31 -9 -5 -14 -14 -10
-19 3 -5 1 -15 -4 -22 -18 -23 -24 -70 -10 -79 10 -7 9 -11 -5 -19 -13 -8 -15
-14 -7 -29 7 -13 6 -19 -5 -24 -11 -4 -14 -13 -9 -30 3 -13 1 -27 -4 -30 -15
-9 -2 -46 16 -46 12 0 11 -4 -6 -16 -15 -11 -21 -22 -17 -34 3 -11 0 -30 -6
-42 -16 -28 -19 -42 -23 -93 -5 -60 -18 -128 -28 -147 -5 -11 -4 -25 3 -36 10
-15 9 -24 -4 -43 -10 -13 -17 -35 -17 -50 0 -15 -7 -32 -15 -39 -17 -14 -20
-40 -5 -40 13 0 13 -27 0 -32 -7 -2 -7 -15 0 -37 6 -23 6 -39 0 -46 -6 -7 -9
-23 -8 -36 2 -14 -2 -23 -8 -22 -8 2 -9 -9 -3 -37 5 -22 11 -68 13 -102 2 -35
6 -71 11 -80 4 -11 3 -18 -4 -18 -15 0 -14 -43 1 -58 10 -10 10 -15 -2 -22
-13 -8 -13 -13 3 -39 11 -19 17 -49 17 -83 -1 -59 2 -84 14 -111 5 -10 6 -20
3 -23 -3 -3 6 -16 19 -29 26 -26 30 -46 14 -75 -8 -16 -8 -18 5 -14 8 4 15 1
15 -6 0 -9 -13 -10 -47 -6 l-48 7 36 -33 c20 -18 40 -41 43 -52 5 -15 2 -18
-18 -14 -22 4 -24 3 -15 -14 6 -10 22 -24 37 -29 15 -6 35 -17 44 -26 17 -15
17 -17 -1 -32 -10 -9 -16 -22 -14 -28 6 -18 -2 -16 -42 9 -19 13 -35 29 -35
36 0 6 -4 12 -10 12 -13 0 -13 -17 0 -25 5 -3 7 -11 5 -18 -3 -7 0 -19 5 -27
8 -12 12 -13 19 -2 6 11 10 10 15 -3 3 -9 6 -24 6 -32 0 -13 -3 -13 -15 -3
-30 25 -24 3 16 -59 30 -47 43 -60 50 -50 6 11 11 11 20 2 6 -6 18 -9 25 -6 8
3 14 -1 14 -10 0 -19 27 -30 33 -13 15 38 -24 126 -81 185 -7 7 -10 16 -7 20
4 3 13 -3 21 -14 32 -47 56 -67 86 -75 37 -11 46 -7 28 15 -8 10 -9 15 -1 15
6 0 11 14 11 32 0 50 10 26 14 -35 4 -57 26 -104 45 -93 5 4 14 -1 19 -10 17
-30 24 15 7 48 -11 23 -12 40 -5 71 6 31 6 46 -4 57 -7 8 -20 36 -30 62 -9 25
-27 57 -40 70 -15 18 -21 34 -19 56 2 17 -3 42 -12 56 -13 19 -13 25 -3 28 10
4 10 8 -1 22 -20 24 -9 28 29 10 43 -22 62 -10 74 44 6 26 17 44 28 48 27 8
31 43 12 94 -9 25 -20 65 -24 90 -11 62 -58 255 -77 314 -19 57 -26 153 -13
161 11 7 3 33 -18 57 -9 11 -16 49 -20 108 -2 50 -8 93 -12 95 -4 2 -3 28 1
57 9 54 6 124 -4 135 -4 3 -4 17 -1 30 4 13 1 30 -6 37 -9 11 -8 20 1 38 7 13
12 29 10 37 -1 7 4 11 11 9 9 -3 14 -33 16 -104 2 -54 4 -110 4 -124 1 -14 -2
-33 -6 -42 -6 -13 -4 -18 8 -18 13 0 15 -4 6 -19 -13 -24 -13 -71 -1 -71 5 0
11 6 14 13 2 6 3 5 2 -4 -1 -9 1 -23 6 -30 4 -7 5 -17 2 -23 -12 -19 -10 -70
3 -83 12 -12 14 -10 14 15 0 16 3 32 7 35 3 4 7 19 8 34 2 16 5 44 8 64 4 19
2 60 -2 90 -5 32 -5 55 0 57 5 2 9 22 9 45 0 23 7 54 15 70 8 16 13 52 13 85
-1 37 5 70 17 96 15 31 16 42 6 58 -10 16 -9 24 4 44 8 13 18 52 21 86 7 78
69 218 96 218 10 0 18 6 18 14 0 7 9 24 19 38 11 14 28 45 37 69 10 24 21 46
24 49 15 11 31 53 41 107 6 32 18 66 26 76 15 15 15 19 0 35 -22 24 -22 28 12
135 16 51 32 128 36 172 3 44 9 88 12 99 3 12 1 16 -6 12 -6 -4 -2 14 9 39 25
58 25 72 0 80 -11 3 -20 11 -20 18 0 8 3 8 12 -1 7 -7 16 -12 20 -12 12 0 10
48 -2 55 -8 5 -7 11 1 21 9 11 9 14 0 14 -7 0 -9 5 -6 11 4 5 -1 19 -10 29
-11 12 -15 26 -10 42 6 21 6 21 -8 8 -11 -10 -17 -44 -21 -110 -3 -52 -10
-117 -15 -145 l-8 -50 -2 48 c-1 33 -5 47 -15 47 -8 0 -17 11 -20 25 -10 41
-26 28 -26 -21 0 -30 -4 -43 -11 -39 -6 4 -9 26 -8 49 4 55 -11 147 -22 140
-5 -3 -9 -40 -9 -82 0 -43 -4 -71 -8 -64 -13 20 -53 -67 -51 -108 1 -19 -5
-50 -14 -67 -10 -18 -22 -80 -29 -137 -6 -58 -15 -103 -19 -100 -5 2 -13 -15
-19 -38 -6 -24 -17 -63 -24 -88 -8 -25 -17 -58 -20 -74 -10 -41 -18 -25 -20
36 -1 36 4 57 14 65 21 16 23 238 3 254 -8 7 -13 34 -13 73 0 43 3 57 10 46 7
-10 10 -11 10 -2 0 7 12 18 26 24 21 10 25 17 20 40 -3 15 -1 28 4 28 6 0 10
13 10 29 0 21 -5 28 -17 27 -21 -1 -30 38 -14 58 6 7 10 35 10 62 -3 86 11
225 26 260 8 19 12 44 9 56 -14 58 -16 122 -5 161 11 39 10 47 -8 79 -22 36
-20 71 4 62 10 -4 14 12 17 69 3 69 2 74 -14 66 -10 -5 -18 -15 -19 -22 0 -7
-4 -3 -9 8 -5 14 -2 26 10 40 28 32 56 146 44 179 -3 9 -15 16 -26 16 -15 0
-17 -4 -10 -16z m132 -1128 c0 -3 -4 -8 -10 -11 -5 -3 -10 -1 -10 4 0 6 5 11
10 11 6 0 10 -2 10 -4z m-203 -58 c-3 -8 -6 -5 -6 6 -1 11 2 17 5 13 3 -3 4
-12 1 -19z m-91 -815 c-10 -10 -19 5 -10 18 6 11 8 11 12 0 2 -7 1 -15 -2 -18z
m-4 -215 c-9 -9 -7 -14 5 -23 15 -11 15 -18 -2 -81 -10 -38 -24 -79 -31 -91
-8 -12 -14 -30 -15 -40 0 -11 -3 -13 -6 -5 -2 6 -12 12 -21 12 -12 0 -13 3 -5
11 6 6 9 18 6 25 -3 7 2 21 11 29 9 9 16 26 16 37 0 17 -2 18 -15 8 -23 -19
-28 -6 -11 29 10 18 22 28 29 25 18 -7 42 22 27 31 -6 4 -17 1 -25 -5 -12 -10
-15 -9 -15 7 0 25 19 43 44 43 15 0 17 -3 8 -12z m-52 -473 c0 -8 -4 -15 -10
-15 -5 0 -7 7 -4 15 4 8 8 15 10 15 2 0 4 -7 4 -15z m15 -1173 c-3 -3 -11 0
-18 7 -9 10 -8 11 6 5 10 -3 15 -9 12 -12z m-1 -284 c24 -33 19 -40 -9 -14
-26 24 -31 36 -16 36 6 0 17 -10 25 -22z m-14 -43 c0 -8 5 -15 12 -15 6 0 8
-3 5 -6 -8 -8 -37 14 -37 27 0 5 5 9 10 9 6 0 10 -7 10 -15z"/>
<path d="M5985 7921 c-6 -11 9 -23 19 -14 9 9 7 23 -3 23 -6 0 -12 -4 -16 -9z"/>
<path d="M3136 7841 c-4 -7 -5 -15 -2 -18 9 -9 19 4 14 18 -4 11 -6 11 -12 0z"/>
<path d="M3060 7816 c0 -22 3 -27 11 -19 8 8 8 16 0 30 -9 16 -10 14 -11 -11z"/>
<path d="M3110 7810 c0 -5 5 -10 11 -10 5 0 7 5 4 10 -3 6 -8 10 -11 10 -2 0
-4 -4 -4 -10z"/>
<path d="M3121 7704 c0 -11 3 -14 6 -6 3 7 2 16 -1 19 -3 4 -6 -2 -5 -13z"/>
<path d="M3121 7544 c0 -11 3 -14 6 -6 3 7 2 16 -1 19 -3 4 -6 -2 -5 -13z"/>
<path d="M5903 7503 c-15 -31 -9 -43 11 -22 8 8 11 22 7 31 -5 14 -8 13 -18
-9z"/>
<path d="M11356 7353 c10 -55 27 -78 20 -28 -3 22 -6 46 -6 53 0 6 -5 12 -10
12 -7 0 -8 -14 -4 -37z"/>
<path d="M3201 7264 c0 -11 3 -14 6 -6 3 7 2 16 -1 19 -3 4 -6 -2 -5 -13z"/>
<path d="M9112 7120 c0 -14 2 -19 5 -12 2 6 2 18 0 25 -3 6 -5 1 -5 -13z"/>
<path d="M5809 7063 c-13 -16 -12 -17 4 -4 16 13 21 21 13 21 -2 0 -10 -8 -17
-17z"/>
<path d="M11820 7036 c0 -8 5 -18 10 -21 6 -3 10 1 10 9 0 8 -4 18 -10 21 -5
3 -10 -1 -10 -9z"/>
<path d="M8942 7028 c5 -15 28 -23 28 -10 0 5 -7 13 -16 16 -10 4 -14 1 -12
-6z"/>
<path d="M1545 7000 c-3 -5 -1 -10 4 -10 6 0 11 5 11 10 0 6 -2 10 -4 10 -3 0
-8 -4 -11 -10z"/>
<path d="M11510 6986 c0 -9 -4 -16 -10 -16 -5 0 -10 -9 -10 -20 0 -11 7 -20
16 -20 9 0 14 7 12 18 -1 9 1 22 5 29 4 6 3 14 -3 18 -5 3 -10 -1 -10 -9z"/>
<path d="M1454 6936 c-11 -27 -27 -47 -39 -50 -16 -5 -17 -8 -6 -15 11 -7 11
-9 0 -13 -9 -3 -13 -17 -11 -41 2 -22 -1 -37 -7 -37 -6 0 -11 -12 -11 -26 0
-14 4 -23 10 -19 6 4 8 11 5 16 -9 13 22 23 43 13 9 -4 21 -6 25 -5 4 1 3 -7
-3 -18 -5 -11 -10 -28 -10 -39 0 -10 -9 -27 -20 -37 -24 -22 -28 -1 -5 29 19
25 19 46 0 46 -8 0 -15 -4 -15 -9 0 -5 -5 -22 -11 -38 -7 -15 -13 -38 -15 -50
-1 -13 -5 -33 -9 -45 -4 -16 -4 -19 3 -9 5 7 15 11 21 7 6 -4 19 -2 30 4 18 9
20 7 19 -20 -1 -20 -6 -30 -17 -30 -14 0 -14 -2 -1 -10 12 -7 12 -12 -5 -29
-21 -24 -20 -27 18 -36 26 -7 27 -5 27 29 0 20 4 36 9 36 12 0 1 -93 -12 -102
-8 -4 -7 -14 1 -32 7 -16 8 -28 2 -31 -14 -9 -12 -49 2 -63 9 -9 9 -18 0 -37
-17 -37 -15 -52 8 -58 13 -3 20 0 20 9 0 8 8 14 17 14 12 0 14 -3 6 -11 -7 -7
-7 -17 1 -35 13 -28 40 -33 32 -6 -3 9 -1 24 5 32 9 13 10 12 5 -2 -3 -11 0
-18 9 -18 7 0 16 -8 18 -17 4 -14 5 -12 6 5 1 13 7 22 17 22 13 0 14 3 4 15
-10 12 -9 16 4 21 23 9 20 27 -4 21 -10 -3 -24 1 -31 9 -15 18 -45 18 -53 -1
-6 -16 -36 -21 -36 -6 0 5 7 14 15 21 8 7 15 19 15 26 0 8 3 14 8 14 4 0 15
18 25 40 9 22 24 40 32 40 19 0 19 19 0 26 -11 5 -12 10 -4 26 6 11 17 17 24
14 9 -3 12 0 9 9 -3 7 -14 15 -25 18 -30 8 -22 27 11 27 22 0 28 4 24 15 -4 8
-1 15 6 15 6 0 8 5 5 11 -4 6 2 13 14 16 30 8 26 61 -6 76 -38 17 -41 57 -5
57 12 1 10 5 -8 15 -19 10 -28 11 -39 2 -12 -10 -13 -9 -7 8 17 42 18 56 6 70
-10 12 -10 19 -2 27 15 15 15 28 2 28 -5 0 -10 -6 -10 -14 0 -8 -7 -17 -16
-20 -9 -4 -13 -13 -10 -24 4 -11 -2 -22 -15 -30 -20 -13 -21 -12 -14 17 5 24
3 31 -9 31 -9 0 -16 -5 -16 -12 0 -6 -3 -8 -7 -4 -4 4 3 16 17 26 22 16 23 20
8 25 -9 4 -27 0 -40 -9 -12 -9 -28 -16 -35 -16 -23 0 -14 18 17 32 33 14 40
28 14 28 -9 0 -14 6 -11 13 2 6 14 11 26 10 24 -3 24 -3 11 31 -14 39 -36 31
-56 -18z m26 -301 c0 -8 -7 -15 -16 -15 -14 0 -14 3 -4 15 7 8 14 15 16 15 2
0 4 -7 4 -15z m60 -25 c0 -5 -4 -10 -10 -10 -5 0 -10 5 -10 10 0 6 5 10 10 10
6 0 10 -4 10 -10z"/>
<path d="M8940 6967 c0 -10 -5 -14 -15 -11 -8 4 -15 2 -15 -4 0 -14 22 -20 42
-13 15 5 15 8 2 25 -12 17 -14 17 -14 3z"/>
<path d="M5850 6880 c-6 -11 -7 -20 -2 -20 10 0 32 21 32 32 0 16 -19 8 -30
-12z"/>
<path d="M8930 6870 c0 -5 5 -10 10 -10 6 0 10 5 10 10 0 6 -4 10 -10 10 -5 0
-10 -4 -10 -10z"/>
<path d="M1675 6840 c3 -5 8 -10 11 -10 2 0 4 5 4 10 0 6 -5 10 -11 10 -5 0
-7 -4 -4 -10z"/>
<path d="M8995 6840 c3 -5 11 -10 16 -10 6 0 7 5 4 10 -3 6 -11 10 -16 10 -6
0 -7 -4 -4 -10z"/>
<path d="M5815 6820 c-3 -5 -2 -10 4 -10 5 0 13 5 16 10 3 6 2 10 -4 10 -5 0
-13 -4 -16 -10z"/>
<path d="M5870 6805 c0 -8 2 -15 4 -15 2 0 6 7 10 15 3 8 1 15 -4 15 -6 0 -10
-7 -10 -15z"/>
<path d="M5850 6730 c0 -5 5 -10 11 -10 5 0 7 5 4 10 -3 6 -8 10 -11 10 -2 0
-4 -4 -4 -10z"/>
<path d="M9020 6701 c0 -12 35 -41 48 -41 21 0 13 15 -18 32 -17 9 -30 13 -30
9z"/>
<path d="M8970 6494 c0 -8 5 -12 10 -9 6 3 10 10 10 16 0 5 -4 9 -10 9 -5 0
-10 -7 -10 -16z"/>
<path d="M8995 6480 c-3 -5 -1 -10 4 -10 6 0 11 5 11 10 0 6 -2 10 -4 10 -3 0
-8 -4 -11 -10z"/>
<path d="M1410 6431 c-7 -15 -7 -21 0 -21 12 0 25 28 17 36 -3 3 -10 -4 -17
-15z"/>
<path d="M5997 6443 c-4 -3 -7 -11 -7 -17 0 -6 5 -5 12 2 6 6 9 14 7 17 -3 3
-9 2 -12 -2z"/>
<path d="M8870 6400 c0 -5 5 -10 11 -10 5 0 7 5 4 10 -3 6 -8 10 -11 10 -2 0
-4 -4 -4 -10z"/>
<path d="M8935 6390 c-5 -16 -1 -28 14 -43 17 -18 21 -19 21 -5 0 8 -6 28 -14
43 -14 26 -14 27 -21 5z"/>
<path d="M11746 6375 c-17 -13 -14 -41 3 -30 7 4 23 46 18 45 -1 0 -10 -7 -21
-15z"/>
<path d="M5885 6360 c-3 -5 -2 -10 4 -10 5 0 13 5 16 10 3 6 2 10 -4 10 -5 0
-13 -4 -16 -10z"/>
<path d="M8920 6310 c0 -5 5 -10 11 -10 5 0 7 5 4 10 -3 6 -8 10 -11 10 -2 0
-4 -4 -4 -10z"/>
<path d="M6058 6263 c6 -2 18 -2 25 0 6 3 1 5 -13 5 -14 0 -19 -2 -12 -5z"/>
<path d="M5912 6193 c-14 -5 -62 -51 -62 -58 0 -16 109 41 110 58 0 8 -28 8
-48 0z"/>
<path d="M5955 6062 c-14 -14 -2 -23 23 -17 40 10 47 22 12 22 -16 0 -32 -3
-35 -5z"/>
<path d="M5916 6034 c-11 -7 -18 -16 -15 -18 2 -2 13 2 23 10 11 7 18 16 15
18 -2 2 -13 -2 -23 -10z"/>
<path d="M8960 6025 c7 -8 17 -15 22 -15 6 0 5 7 -2 15 -7 8 -17 15 -22 15 -6
0 -5 -7 2 -15z"/>
<path d="M4620 5990 c-16 -13 -20 -20 -10 -19 16 0 50 22 50 33 0 11 -14 6
-40 -14z"/>
<path d="M8900 5970 c0 -7 24 -20 36 -20 13 0 1 19 -16 23 -11 3 -20 2 -20 -3z"/>
<path d="M4653 5928 c-35 -40 -38 -50 -9 -36 14 6 26 15 26 19 0 4 7 15 16 23
12 13 13 16 1 16 -7 0 -23 -10 -34 -22z"/>
<path d="M5975 5940 c3 -5 10 -10 16 -10 5 0 9 5 9 10 0 6 -7 10 -16 10 -8 0
-12 -4 -9 -10z"/>
<path d="M6045 5940 c-8 -13 5 -13 25 0 13 8 13 10 -2 10 -9 0 -20 -4 -23 -10z"/>
<path d="M1773 5910 c-13 -5 -23 -14 -23 -19 0 -5 -10 -7 -22 -5 -21 4 -21 4
-3 -4 25 -11 75 5 75 24 0 8 -1 14 -2 13 -2 0 -13 -4 -25 -9z"/>
<path d="M6013 5885 c-3 -9 -3 -18 0 -21 9 -9 27 6 27 22 0 19 -19 18 -27 -1z"/>
<path d="M8834 5859 c-4 -7 -2 -15 4 -17 14 -4 16 -32 3 -32 -6 0 -13 5 -16
10 -13 21 -30 9 -32 -23 -2 -26 2 -34 24 -44 32 -15 51 -6 26 12 -17 12 -16
14 5 32 22 17 22 20 9 46 -11 20 -17 25 -23 16z"/>
<path d="M8880 5860 c0 -5 5 -10 10 -10 6 0 10 5 10 10 0 6 -4 10 -10 10 -5 0
-10 -4 -10 -10z"/>
<path d="M4650 5845 c11 -13 9 -21 -9 -46 -31 -41 -54 -121 -39 -130 7 -4 15
-6 20 -3 4 3 16 -1 27 -8 17 -10 24 -9 43 9 13 11 28 19 34 16 6 -2 19 8 28
22 9 14 21 25 26 25 5 0 19 8 30 18 11 9 30 19 42 22 12 3 23 11 26 18 6 19
-33 14 -52 -7 -11 -12 -30 -19 -51 -18 -43 1 -74 -16 -102 -56 -22 -30 -23
-30 -23 -8 0 13 13 39 30 57 35 41 64 94 51 94 -5 0 -18 -12 -29 -27 -11 -16
-24 -25 -28 -21 -4 4 -1 14 5 22 16 19 6 36 -21 36 -17 0 -18 -2 -8 -15z"/>
<path d="M4756 5838 c-21 -29 -11 -37 15 -11 13 13 17 23 11 27 -6 3 -18 -4
-26 -16z"/>
<path d="M5990 5840 c0 -5 5 -10 10 -10 6 0 10 5 10 10 0 6 -4 10 -10 10 -5 0
-10 -4 -10 -10z"/>
<path d="M1760 5819 c0 -6 12 -8 33 -5 17 3 26 3 20 0 -22 -10 -14 -24 12 -24
14 0 25 5 25 10 0 6 10 10 23 11 21 1 21 1 -3 9 -38 12 -110 12 -110 -1z"/>
<path d="M5960 5774 c0 -12 -7 -14 -30 -9 -23 5 -30 3 -30 -9 0 -17 36 -22 56
-8 15 10 25 42 14 42 -6 0 -10 -7 -10 -16z"/>
<path d="M1855 5770 c-3 -5 3 -10 15 -10 12 0 18 5 15 10 -3 6 -10 10 -15 10
-5 0 -12 -4 -15 -10z"/>
<path d="M10290 5770 c0 -5 5 -10 11 -10 5 0 7 5 4 10 -3 6 -8 10 -11 10 -2 0
-4 -4 -4 -10z"/>
<path d="M1975 5680 c-3 -5 1 -10 9 -10 9 0 16 5 16 10 0 6 -4 10 -9 10 -6 0
-13 -4 -16 -10z"/>
<path d="M3562 5588 c10 -74 28 -124 38 -108 9 14 27 -24 35 -73 5 -29 10 -37
23 -35 21 4 18 54 -5 108 -35 84 -64 138 -81 154 -18 16 -19 14 -10 -46z"/>
<path d="M5948 5633 c6 -2 18 -2 25 0 6 3 1 5 -13 5 -14 0 -19 -2 -12 -5z"/>
<path d="M5825 5600 c-3 -5 -2 -10 4 -10 5 0 13 5 16 10 3 6 2 10 -4 10 -5 0
-13 -4 -16 -10z"/>
<path d="M5760 5586 c0 -9 5 -16 10 -16 6 0 10 4 10 9 0 6 -4 13 -10 16 -5 3
-10 -1 -10 -9z"/>
<path d="M5950 5580 c-12 -8 -11 -10 7 -10 12 0 25 5 28 10 8 13 -15 13 -35 0z"/>
<path d="M2050 5539 c7 -11 14 -18 17 -15 8 8 -5 36 -17 36 -7 0 -7 -6 0 -21z"/>
<path d="M5963 5483 c-3 -10 -8 -21 -10 -25 -4 -7 56 8 64 16 3 3 2 9 -2 15
-10 17 -45 13 -52 -6z"/>
<path d="M3730 5411 c0 -5 5 -13 10 -16 6 -3 10 -2 10 4 0 5 -4 13 -10 16 -5
3 -10 2 -10 -4z"/>
<path d="M5946 5409 c-33 -20 -56 -48 -50 -63 9 -22 36 -28 53 -11 14 13 13
15 -6 15 -36 0 -35 16 2 36 19 10 35 22 35 26 0 11 -11 10 -34 -3z"/>
<path d="M3670 5335 c0 -8 5 -15 10 -15 6 0 10 7 10 15 0 8 -4 15 -10 15 -5 0
-10 -7 -10 -15z"/>
<path d="M3770 5343 c0 -4 5 -15 10 -23 8 -13 10 -13 10 2 0 9 -4 20 -10 23
-5 3 -10 3 -10 -2z"/>
<path d="M8805 5340 c3 -5 8 -10 11 -10 2 0 4 5 4 10 0 6 -5 10 -11 10 -5 0
-7 -4 -4 -10z"/>
<path d="M5890 5265 c14 -7 27 -11 30 -9 6 7 -22 24 -40 23 -9 0 -5 -6 10 -14z"/>
<path d="M8850 5241 c0 -6 5 -13 10 -16 6 -3 10 1 10 9 0 9 -4 16 -10 16 -5 0
-10 -4 -10 -9z"/>
<path d="M5850 5230 c0 -5 5 -10 10 -10 6 0 10 5 10 10 0 6 -4 10 -10 10 -5 0
-10 -4 -10 -10z"/>
<path d="M2505 5179 c-4 -6 -5 -12 -2 -15 2 -3 7 2 10 11 7 17 1 20 -8 4z"/>
<path d="M8820 5180 c0 -5 5 -10 10 -10 6 0 10 5 10 10 0 6 -4 10 -10 10 -5 0
-10 -4 -10 -10z"/>
<path d="M8870 5181 c0 -5 5 -13 10 -16 6 -3 10 -2 10 4 0 5 -4 13 -10 16 -5
3 -10 2 -10 -4z"/>
<path d="M4860 5114 c0 -8 5 -12 10 -9 6 3 10 10 10 16 0 5 -4 9 -10 9 -5 0
-10 -7 -10 -16z"/>
<path d="M2487 5104 c-4 -4 -7 -17 -7 -28 1 -19 1 -20 11 -3 11 19 8 43 -4 31z"/>
<path d="M5800 5100 c0 -5 5 -10 10 -10 6 0 10 5 10 10 0 6 -4 10 -10 10 -5 0
-10 -4 -10 -10z"/>
<path d="M5855 5100 c-3 -6 1 -7 9 -4 18 7 21 14 7 14 -6 0 -13 -4 -16 -10z"/>
<path d="M5878 5064 c-32 -17 -37 -44 -8 -44 19 0 44 33 38 50 -2 4 -15 2 -30
-6z"/>
<path d="M3427 4993 c-14 -13 -7 -73 7 -73 11 0 13 9 9 38 -7 43 -7 44 -16 35z"/>
<path d="M3781 4974 c0 -11 3 -14 6 -6 3 7 2 16 -1 19 -3 4 -6 -2 -5 -13z"/>
<path d="M6021 4936 c-7 -8 -8 -17 -3 -20 6 -3 15 1 21 8 7 8 8 17 3 20 -6 3
-15 -1 -21 -8z"/>
<path d="M5970 4914 c0 -8 5 -12 10 -9 6 4 8 11 5 16 -9 14 -15 11 -15 -7z"/>
<path d="M3785 4910 c-9 -15 5 -90 16 -90 5 0 9 23 9 50 0 47 -11 63 -25 40z"/>
<path d="M3519 4869 c-8 -15 -8 -24 0 -32 7 -7 12 -5 16 6 3 9 7 24 10 32 7
23 -13 18 -26 -6z"/>
<path d="M3450 4864 c0 -9 -9 -27 -20 -41 -11 -14 -20 -30 -20 -36 0 -18 31
16 46 51 17 41 17 42 4 42 -5 0 -10 -7 -10 -16z"/>
<path d="M5892 4857 c-17 -20 -12 -40 6 -28 8 5 12 16 10 26 -3 17 -4 17 -16
2z"/>
<path d="M6090 4856 c0 -8 5 -18 10 -21 6 -3 10 1 10 9 0 8 -4 18 -10 21 -5 3
-10 -1 -10 -9z"/>
<path d="M3460 4789 c0 -11 -4 -17 -10 -14 -13 8 -13 -35 0 -55 8 -13 11 -11
16 8 4 12 10 22 15 22 5 0 9 14 9 30 0 20 -5 30 -15 30 -8 0 -15 -9 -15 -21z"/>
<path d="M9841 4784 c0 -11 3 -14 6 -6 3 7 2 16 -1 19 -3 4 -6 -2 -5 -13z"/>
<path d="M3367 4763 c-11 -10 -8 -41 4 -49 16 -9 43 21 36 40 -7 16 -28 21
-40 9z"/>
<path d="M3800 4685 c0 -17 4 -23 14 -19 8 3 12 13 9 25 -7 27 -23 24 -23 -6z"/>
<path d="M3363 4684 c-7 -3 -9 -12 -6 -20 3 -8 0 -21 -6 -28 -8 -10 -9 -16 -1
-21 20 -12 10 -27 -15 -21 -27 7 -32 -3 -12 -23 10 -10 8 -14 -6 -23 -17 -9
-17 -11 -2 -28 18 -20 11 -70 -10 -70 -8 0 -12 -15 -12 -40 0 -41 9 -48 37
-30 13 8 13 11 1 19 -11 7 -10 12 7 29 25 25 38 78 23 96 -8 10 -7 17 4 26 12
10 15 9 15 -6 0 -16 2 -17 15 -4 19 20 32 80 16 80 -6 0 -11 9 -11 19 0 24
-10 51 -19 50 -3 0 -11 -3 -18 -5z"/>
<path d="M9743 4575 c-24 -23 -31 -59 -11 -53 12 4 46 55 47 71 2 13 -13 6
-36 -18z"/>
<path d="M3740 4499 c0 -5 5 -7 10 -4 6 3 10 8 10 11 0 2 -4 4 -10 4 -5 0 -10
-5 -10 -11z"/>
<path d="M3346 4373 c-11 -11 -6 -23 9 -23 8 0 15 4 15 9 0 13 -16 22 -24 14z"/>
<path d="M3387 4334 c3 -7 0 -14 -6 -14 -6 0 -11 -7 -11 -15 0 -20 10 -19 26
3 17 22 17 29 0 35 -10 4 -13 1 -9 -9z"/>
<path d="M3260 4320 c0 -5 5 -10 10 -10 6 0 10 5 10 10 0 6 -4 10 -10 10 -5 0
-10 -4 -10 -10z"/>
<path d="M3300 4233 c-32 -12 -41 -57 -14 -67 27 -10 54 12 54 44 0 30 -9 35
-40 23z"/>
<path d="M3222 4140 c-16 -26 -15 -35 2 -21 8 6 18 11 22 10 21 -3 26 2 14 16
-16 20 -23 19 -38 -5z"/>
<path d="M11071 3853 c0 -5 15 -20 34 -35 28 -24 34 -26 45 -13 10 13 9 15 -8
15 -12 0 -26 9 -32 20 -10 19 -41 29 -39 13z"/>
<path d="M3635 3800 c3 -5 10 -10 16 -10 5 0 9 5 9 10 0 6 -7 10 -16 10 -8 0
-12 -4 -9 -10z"/>
<path d="M4544 3499 c-3 -6 -1 -16 5 -22 8 -8 11 -5 11 11 0 24 -5 28 -16 11z"/>
<path d="M3775 3430 c-3 -5 1 -10 10 -10 9 0 13 5 10 10 -3 6 -8 10 -10 10 -2
0 -7 -4 -10 -10z"/>
<path d="M4465 3363 c7 -29 23 -45 37 -37 13 8 9 24 -4 22 -7 -2 -14 7 -16 20
-2 12 -8 22 -14 22 -6 0 -7 -11 -3 -27z"/>
<path d="M6216 2825 c-11 -8 -17 -17 -14 -21 8 -8 48 14 48 26 0 14 -12 12
-34 -5z"/>
<path d="M6160 2800 c0 -5 5 -10 10 -10 6 0 10 5 10 10 0 6 -4 10 -10 10 -5 0
-10 -4 -10 -10z"/>
<path d="M6115 2770 c3 -5 8 -10 11 -10 2 0 4 5 4 10 0 6 -5 10 -11 10 -5 0
-7 -4 -4 -10z"/>
<path d="M8611 2711 c-8 -6 -9 -11 -3 -15 6 -3 14 -1 17 5 9 14 2 20 -14 10z"/>
<path d="M8641 2624 c0 -11 3 -14 6 -6 3 7 2 16 -1 19 -3 4 -6 -2 -5 -13z"/>
<path d="M6545 2610 c-19 -8 -19 -9 3 -9 12 -1 22 4 22 9 0 6 -1 10 -2 9 -2 0
-12 -4 -23 -9z"/>
<path d="M8685 2611 c-3 -5 -1 -12 5 -16 5 -3 10 1 10 9 0 18 -6 21 -15 7z"/>
<path d="M6400 2564 c0 -8 5 -12 10 -9 6 3 10 10 10 16 0 5 -4 9 -10 9 -5 0
-10 -7 -10 -16z"/>
<path d="M6680 2569 c0 -5 5 -7 10 -4 6 3 10 8 10 11 0 2 -4 4 -10 4 -5 0 -10
-5 -10 -11z"/>
<path d="M6634 2535 c-17 -13 -17 -14 -2 -15 9 0 20 5 23 11 11 17 0 20 -21 4z"/>
<path d="M8340 2481 c0 -6 4 -13 10 -16 6 -3 7 1 4 9 -7 18 -14 21 -14 7z"/>
<path d="M8400 2450 c6 -11 15 -20 20 -20 16 0 11 27 -6 34 -24 9 -26 8 -14
-14z"/>
<path d="M7081 2324 c0 -11 3 -14 6 -6 3 7 2 16 -1 19 -3 4 -6 -2 -5 -13z"/>
<path d="M7930 2320 c0 -5 7 -10 16 -10 8 0 12 5 9 10 -3 6 -10 10 -16 10 -5
0 -9 -4 -9 -10z"/>
<path d="M7167 2259 c7 -7 15 -10 18 -7 3 3 -2 9 -12 12 -14 6 -15 5 -6 -5z"/>
<path d="M7980 2211 c0 -10 19 -25 25 -20 1 2 -3 10 -11 17 -8 7 -14 8 -14 3z"/>
<path d="M7230 2190 c0 -11 5 -20 10 -20 6 0 10 9 10 20 0 11 -4 20 -10 20 -5
0 -10 -9 -10 -20z"/>
<path d="M7340 2182 c0 -15 -5 -33 -12 -40 -8 -8 -8 -12 -1 -12 14 0 43 44 43
65 0 8 -7 15 -15 15 -10 0 -15 -10 -15 -28z"/>
<path d="M7435 2180 c3 -5 11 -10 16 -10 6 0 7 5 4 10 -3 6 -11 10 -16 10 -6
0 -7 -4 -4 -10z"/>
<path d="M7612 2164 c7 -15 14 -21 16 -15 5 16 -5 41 -17 41 -7 0 -6 -10 1
-26z"/>
<path d="M7342 1751 c-7 -4 -13 -26 -13 -52 0 -24 0 -59 0 -78 0 -59 10 -68
31 -26 11 21 17 42 13 48 -3 6 -1 7 5 3 7 -4 12 -2 12 3 0 6 -4 11 -10 11 -5
0 -10 12 -11 28 -2 46 -13 72 -27 63z"/>
<path d="M7340 1526 c0 -14 4 -27 8 -30 5 -3 6 8 4 25 -5 35 -12 38 -12 5z"/>
</g>
</svg>
